<?xml version="1.0" encoding="utf-8"?>
<!-- Generator: Adobe Illustrator 24.3.0, SVG Export Plug-In . SVG Version: 6.00 Build 0)  -->
<svg version="1.1" id="Layer_1" xmlns="http://www.w3.org/2000/svg" xmlns:xlink="http://www.w3.org/1999/xlink" x="0px" y="0px"
	 viewBox="0 0 147.6 155.5" style="enable-background:new 0 0 147.6 155.5;" xml:space="preserve">
<style type="text/css">
	.st0{fill:#FFFFFF;}
</style>
<path class="st0" d="M110.5,101.1c-0.6,0-1.2-0.4-1.4-1c-1.1-2.9-3-5.6-5.4-7.6c-1.7-1.5-3.8-2.6-6-3.2l-17.1-5
	c-0.5-0.1-1-0.4-1.5-0.7c-1.3-0.8-2.1-2.2-2.3-3.7L76,72.5l0.7-0.5c4.7-3.8,8-9,9.5-14.9l0.3-1l1-0.1c2.2-0.2,4-3,4-6.4
	c0-3.2-1.5-5.8-3.6-6.4c-0.8-0.2-1.3-1-1.1-1.8c0.2-0.8,1-1.3,1.8-1.1l0,0c3.4,0.9,5.8,4.7,5.8,9.3s-2.4,8.3-5.7,9.2
	c-1.6,5.9-5,11.1-9.6,15l0.7,5.9c0.1,0.6,0.4,1.2,1,1.6c0.2,0.1,0.4,0.2,0.6,0.3l17,4.9c2.6,0.7,5.1,2,7.1,3.8
	c2.8,2.3,5,5.4,6.3,8.8c0.3,0.8-0.1,1.6-0.9,1.9C110.8,101.1,110.7,101.1,110.5,101.1z"/>
<path class="st0" d="M96.5,125.3H14.1c-0.7,0-1.4-0.3-1.9-0.9c-0.5-0.6-0.7-1.4-0.5-2.1l4-19.9c1-4.8,3.5-9,7.2-12.1
	c2.1-1.8,4.6-3.1,7.3-3.8l16.9-4.9c0.2-0.1,0.4-0.2,0.6-0.3c0.6-0.4,0.9-0.9,1-1.6l0.7-5.9c-4.6-4-8-9.2-9.6-15
	c-3.3-0.9-5.7-4.7-5.7-9.2s2.3-8.3,5.6-9.2c0.8-0.2,1.6,0.2,1.9,1s-0.2,1.6-1,1.9c-2,0.6-3.5,3.2-3.5,6.3c0,3.4,1.8,6.2,4,6.4l1,0.1
	l0.3,1c1.4,5.9,4.8,11.2,9.5,15l0.7,0.5l-0.9,7.6c-0.2,1.5-1,2.9-2.3,3.7c-0.4,0.3-0.9,0.5-1.5,0.7l-17,4.9
	c-2.3,0.6-4.4,1.7-6.1,3.2c-3.2,2.7-5.4,6.3-6.2,10.4l-3.9,19.3h81.7c0.8,0,1.5,0.7,1.5,1.5S97.3,125.3,96.5,125.3L96.5,125.3z
	 M14.7,122.9L14.7,122.9z"/>
<path class="st0" d="M40.2,43.2c-0.8,0-1.5-0.6-1.5-1.4c0-0.6-0.5-14.2,7.8-22.9c4.4-4.6,10.4-6.9,17.8-6.9s13.4,2.3,17.8,6.9
	c8.3,8.7,7.7,22.3,7.7,22.9c0,0.8-0.7,1.5-1.6,1.4c-0.8,0-1.5-0.7-1.4-1.6c0,0,0,0,0,0c0-0.1,0.5-12.9-6.9-20.7c-3.8-4-9-6-15.6-6
	s-11.8,2-15.6,6c-7.4,7.8-7,20.6-7,20.7C41.7,42.5,41.1,43.2,40.2,43.2C40.3,43.3,40.3,43.3,40.2,43.2L40.2,43.2z"/>
<path class="st0" d="M75.6,33.6c-1.2,0-2.5-0.1-3.7-0.2c-4.5-0.5-8.3-2.3-11.9-4.1c-1-0.5-1.9-1-2.9-1.4c-3.8-1.7-7-2.1-9.5-1.2
	c-1.8,0.6-3.3,1.9-4.2,3.6c-0.4,0.7-1.4,0.9-2.1,0.5c-0.6-0.4-0.9-1.1-0.6-1.8c1.2-2.4,3.3-4.2,5.9-5.1c3.3-1.2,7.2-0.8,11.8,1.3
	c1,0.5,2,1,3,1.4c3.6,1.7,6.9,3.4,10.9,3.8c4.7,0.7,9.4-0.1,13.6-2.2c0.7-0.4,1.6-0.2,2,0.6s0.2,1.6-0.6,2c0,0-0.1,0-0.1,0.1
	C83.6,32.7,79.6,33.7,75.6,33.6z"/>
<path class="st0" d="M64.3,100.3c-0.4,0-0.8-0.2-1.1-0.5L47.5,83.6C47,82.9,47,82,47.6,81.4c0.6-0.5,1.5-0.5,2.1,0l15.7,16.3
	c0.6,0.6,0.6,1.5,0,2.1C65.1,100.1,64.7,100.3,64.3,100.3z"/>
<path class="st0" d="M64.3,100.3c-0.8,0-1.5-0.7-1.5-1.5c0-0.4,0.2-0.8,0.4-1l15.7-16.3c0.6-0.6,1.5-0.6,2.1,0
	c0.6,0.6,0.6,1.5,0,2.1L65.4,99.8C65.1,100.1,64.7,100.3,64.3,100.3z"/>
<path class="st0" d="M81.7,87.6l-14.5,15.4c-1.6,1.6-4.1,1.6-5.7,0c0,0,0,0,0,0L46.9,87.6L41,89.4l23.2,24.9l0.1-0.1l0.1,0.1
	l23.2-24.9L81.7,87.6z"/>
<path class="st0" d="M115.4,143.5c-11.3,0-20.5-9.1-20.5-20.4c0-11.3,9.1-20.5,20.4-20.5c11.3,0,20.5,9.1,20.5,20.4c0,0,0,0,0,0
	C135.8,134.4,126.7,143.5,115.4,143.5z M115.4,105.6c-9.6,0-17.5,7.8-17.5,17.4c0,9.6,7.8,17.5,17.4,17.5s17.5-7.8,17.5-17.4
	c0,0,0,0,0,0C132.8,113.5,125,105.6,115.4,105.6z"/>
<path class="st0" d="M116.7,132.3H114l-6.5-18h2.7l4,11.6c0.6,1.7,1,2.9,1.2,3.7l0,0c0.4-1.3,0.8-2.6,1.3-3.9l4.1-11.4h2.5
	L116.7,132.3z"/>
</svg>
