<?xml version="1.0" encoding="UTF-8"?>
<!DOCTYPE svg PUBLIC "-//W3C//DTD SVG 1.1//EN" "http://www.w3.org/Graphics/SVG/1.1/DTD/svg11.dtd">
<!-- Creator: CorelDRAW 2020 (64-Bit) -->
<svg xmlns="http://www.w3.org/2000/svg" xml:space="preserve" width="358.17mm" height="197.9mm" version="1.1" style="shape-rendering:geometricPrecision; text-rendering:geometricPrecision; image-rendering:optimizeQuality; fill-rule:evenodd; clip-rule:evenodd"
viewBox="0 0 43829.11 24216.98"
 xmlns:xlink="http://www.w3.org/1999/xlink"
 xmlns:xodm="http://www.corel.com/coreldraw/odm/2003">
 <defs>
  <style type="text/css">
   <![CDATA[
    .fil0 {fill:none}
    .fil1 {fill:#B8B8B8;fill-rule:nonzero}
    .fil2 {fill:red;fill-rule:nonzero}
   ]]>
  </style>
 </defs>
 <g id="Layer_x0020_1">
  <metadata id="CorelCorpID_0Corel-Layer"/>
  <rect class="fil0" x="0.01" y="-0" width="43829.1" height="24216.98"/>
  <g id="_1419432295648">
   <g>
    <path class="fil1" d="M7277.05 14061.73l0 1039.31 -195.73 0 0 -1039.31 -320.57 0 0 -167.03 835.17 0 0 167.03 -318.87 0zm1459.98 1039.33l0 -1206.34 195.72 0 0 445.38 593.86 0 0 -445.38 195.72 0 0 1206.34 -195.72 0 0 -585.44 -593.86 0 0 585.44 -195.72 0zm2253.28 0l0 -1206.34 673.22 0 0 167.05 -477.5 0 0 301.95 477.5 0 0 172.1 -477.5 0 0 389.74 477.5 0 0 175.45 -673.22 0 0 0.06zm15770.52 -912.83c-55.36,-47.23 -114.17,-82.72 -175.74,-106.34 -61.87,-23.62 -126.85,-35.49 -194.9,-35.49 -131.56,0 -238.78,42.18 -321.4,126.86 -82.71,84.61 -124.03,194.02 -124.03,328.75 0,129.92 40.19,237.32 120.62,321.93 80.43,84.61 181.96,126.86 304.3,126.86 71.4,0 139.26,-12.68 203.88,-37.91 64.42,-25.32 126.22,-63.23 185.61,-114.45l0 221.57c-52.58,38.02 -109.94,66.41 -172.1,84.97 -62.16,18.81 -129.39,28.15 -201.6,28.15 -92.19,0 -177.45,-15.22 -255.64,-45.25 -78.44,-30.38 -147.13,-74.84 -206.4,-133.55 -58.82,-57.64 -103.77,-125.69 -135.55,-203.88 -31.5,-78.19 -47.23,-161.7 -47.23,-250 0,-88.61 15.74,-171.57 47.23,-249.12 31.78,-77.91 77.26,-145.96 137.26,-204.77 59.88,-59.35 128.49,-104.34 205.86,-134.73 77.39,-30.68 161.17,-45.89 251.19,-45.89 70.86,0 138.36,10.4 202.42,30.96 64.33,20.8 126.49,52.04 187.03,93.94l-10.7 197.43 -0.11 -0.04zm1234.53 912.83l0 -1206.34 195.72 0 0 445.38 593.86 0 0 -445.38 195.72 0 0 1206.34 -195.72 0 0 -585.44 -593.86 0 0 585.44 -195.72 0zm3285.87 -600.72c0,-60.99 -11.22,-118.92 -33.48,-173.74 -22.27,-54.82 -54.3,-103.71 -95.9,-146.49 -40.82,-42.54 -87.78,-74.84 -141.14,-97.54 -53.65,-22.8 -110.22,-34.37 -169.21,-34.37 -59.35,0 -115.92,11.22 -169.58,33.74 -53.4,22.44 -101.24,55.1 -142.78,98.18 -41.61,42.18 -73.74,90.85 -95.64,145.67 -21.92,54.82 -32.84,113 -32.84,174.63 0,60.99 10.93,118.63 32.84,172.98 21.98,54.3 54,102.89 95.64,145.61 41.61,43.06 89.13,75.62 142.61,98.18 53.11,22.52 109.94,33.74 169.85,33.74 58.71,0 114.46,-11.22 167.59,-33.74 52.83,-22.52 100.71,-55.12 142.88,-98.18 41.62,-42.72 73.68,-91.39 95.9,-145.96 22.27,-54.82 33.49,-112.21 33.49,-172.63l-0.22 -0.07zm204.14 0c0,85.78 -16.03,166.75 -48.07,242.95 -32.31,76.46 -78.98,144.49 -140.6,204.42 -61.81,59.88 -131.84,105.76 -210.01,137.54 -77.9,31.78 -159.7,47.77 -245.19,47.77 -86.97,0 -169.58,-16.03 -248.67,-48.05 -78.72,-32.32 -148.12,-77.91 -208.64,-137.26 -61.53,-59.89 -108.24,-127.68 -140.08,-203.6 -31.78,-75.62 -47.77,-156.89 -47.77,-243.77 0,-86.32 16.03,-167.57 47.77,-243.77 31.77,-76.46 78.44,-144.89 140.08,-205.31 61.63,-59.88 131.3,-105.41 209.18,-136.61 77.91,-31.2 160.52,-46.95 248.02,-46.95 86.6,0 168.67,15.75 246.59,46.95 77.63,31.2 147.31,76.74 208.65,136.61 61.63,60.99 108.3,129.92 140.61,206.41 32.02,76.73 48.05,157.45 48.05,242.6l0.07 0.07zm1219.3 600.72l0 -1206.34 195.72 0 0 1206.34 -195.72 0zm2436.88 -912.83c-55.36,-47.23 -114.11,-82.72 -175.74,-106.34 -61.81,-23.62 -126.86,-35.49 -194.9,-35.49 -131.67,0 -238.79,42.18 -321.4,126.86 -82.72,84.61 -123.97,194.02 -123.97,328.75 0,129.92 40.19,237.32 120.62,321.93 80.45,84.61 181.98,126.86 304.2,126.86 71.5,0 139.26,-12.68 203.95,-37.91 64.33,-25.32 126.21,-63.23 185.6,-114.45l0 221.57c-52.58,38.02 -109.94,66.41 -172.1,84.97 -62.16,18.81 -129.39,28.15 -201.6,28.15 -92.19,0 -177.44,-15.22 -255.63,-45.25 -78.45,-30.38 -147.14,-74.84 -206.41,-133.55 -58.81,-57.64 -103.7,-125.69 -135.55,-203.88 -31.49,-78.19 -47.23,-161.7 -47.23,-250 0,-88.61 15.75,-171.57 47.23,-249.12 31.78,-77.91 77.26,-145.96 137.19,-204.77 59.89,-59.35 128.5,-104.34 205.87,-134.73 77.37,-30.68 161.16,-45.89 251.11,-45.89 70.85,0 138.36,10.4 202.41,30.96 64.42,20.8 126.58,52.04 187.03,93.94l-10.68 197.43 0 -0.04zm1234.49 912.83l0 -1206.34 673.23 0 0 167.05 -477.51 0 0 301.95 477.51 0 0 172.1 -477.51 0 0 389.74 477.51 0 0 175.45 -673.23 0 0 0.06z"/>
    <path class="fil2" d="M14603.03 14409.32l35.73 0c103.71,0 172.64,-12.04 206.66,-36.31 34.02,-24.16 51.22,-66.97 51.22,-128.49 0,-66.34 -18.27,-113.01 -54.82,-140.37 -36.55,-27.25 -104.34,-40.71 -203.06,-40.71l-35.73 0 0 345.84 0 0.04zm-11.86 151.82l0 539.92 -183.86 0 0 -1206.34 273.35 0c80.08,0 142.24,5.35 186.66,15.75 44.18,10.4 81.79,27.51 113.01,51.76 37.37,29.21 66.04,66.97 86.6,113.01 20.26,46.13 30.38,96.46 30.38,151.58 0,96.46 -23.34,172.1 -70.03,226.92 -46.71,54.58 -115.64,87.42 -206.66,98.36l415.05 548.96 -221.05 0 -401.59 -539.92 -21.98 0 0.11 0zm1755.6 539.92l0 -1206.34 195.72 0 0 1206.34 -195.72 0zm2137.45 -617.58l477.22 0c0,8.16 0.28,19.74 0.82,34.56 1.71,39.07 2.53,65.22 2.53,78.98 0,169.57 -48.7,301.48 -145.67,395.14 -97.3,93.94 -234.26,140.9 -410.89,140.9 -99,0 -187.03,-14.57 -264.29,-43.54 -77.37,-29.21 -145.31,-73.1 -203.3,-131.84 -57.11,-58.17 -101,-126.51 -131.39,-205.3 -30.68,-78.45 -45.78,-162.52 -45.78,-252.01 0,-91.13 15.47,-175.17 46.41,-252.19 31.14,-76.73 77.02,-144.59 138.08,-203.3 58.82,-57.64 127.68,-101.53 206.66,-131.84 79.09,-30.14 163.69,-45.24 253.65,-45.24 94.73,0 179.97,17.45 254.82,52.04 74.84,34.56 141.7,87.49 200.53,158.88l-142.78 107.94c-40.83,-47.25 -86.6,-82.44 -137.8,-105.41 -50.83,-23.09 -107.94,-34.56 -171.28,-34.56 -130.74,0 -237.32,41.89 -320.05,125.67 -82.72,83.8 -123.97,192.66 -123.97,326.47 0,136.37 41.36,246.94 123.97,331.55 82.72,84.96 189.84,127.4 321.76,127.4 111.93,0 200.14,-26.15 264.29,-78.21 64.34,-52.29 96.48,-123.15 96.48,-213.45l0 -17.11 -289.92 0 0 -165.39 -0.1 -0.15zm1677.86 617.58l0 -1206.34 195.72 0 0 445.38 593.86 0 0 -445.38 195.72 0 0 1206.34 -195.72 0 0 -585.44 -593.86 0 0 585.44 -195.72 0zm2643.11 -1039.33l0 1039.31 -195.72 0 0 -1039.31 -320.58 0 0 -167.03 835.17 0 0 167.03 -318.87 0z"/>
   </g>
   <polygon class="fil1" points="24460.8,9083.95 24460.8,12608.91 23786.67,12608.91 23786.67,11207.37 22048.89,11207.37 22048.89,12608.91 21374.7,12608.91 21374.7,9083.95 22048.89,9083.95 22048.89,10610.34 23786.67,10610.34 23786.67,9083.95 "/>
   <polygon class="fil1" points="15836.88,12656.61 16510.99,12656.61 16510.99,9136.25 15836.88,9136.25 "/>
   <path class="fil1" d="M12885.62 10941.9l926.77 0c60.52,0 123.97,-12.04 189.13,-35.84 66.04,-24.79 123.97,-61.52 175.44,-111.21 51.3,-49.41 93.55,-110.94 126.86,-185.5 33.85,-73.46 50.48,-159.7 50.48,-259.88 0,-51.48 -6.41,-112.04 -19.44,-182.86 -11.87,-70.51 -37.73,-137.62 -76.1,-201.96 -38.64,-64.34 -92.76,-119.44 -163.51,-164.51 -70.68,-44.07 -164.4,-66.97 -282.86,-66.97l-926.77 0 0 1208.69 0 0.04zm0 1719.29l-674.11 0 0 -3524.94 1601.94 0c179.98,0 344.38,29.49 494.04,89.13 149.66,59.7 277.27,143.25 383.85,250.65 105.59,107.4 188.31,235.98 248.02,384.85 59.7,149.66 88.95,312.07 88.95,488.62 0,266.29 -66.04,499.66 -200.14,698.02 -133.2,199.35 -310.35,342.56 -532.69,428.98 295.72,391.26 588.79,786.16 878.06,1184.83l-804.6 0c-140.61,-183.68 -278.34,-368.36 -412.53,-553.96 -134.84,-186.32 -269.1,-375.7 -403.12,-568.36l-667.78 0 0 1122.31 0.11 -0.15z"/>
   <polygon class="fil1" points="27786.78,9680.87 26781.03,9680.87 26781.03,12608.91 26106.91,12608.91 26106.91,9680.87 25095.83,9680.87 25095.83,9083.95 27786.78,9083.95 "/>
   <polygon class="fil2" points="34898.77,10860.89 33560.47,9083.84 34401.92,9083.84 35317.53,10350.39 36231.08,9083.84 37068.43,9083.84 35736.19,10860.89 37046.45,12604.3 36202.93,12604.3 35317.53,11376.13 34429.96,12604.3 33588.54,12604.3 "/>
   <polygon class="fil1" points="32084.31,11325 31332.99,10682.02 30580.69,11325 "/>
   <polygon class="fil2" points="29585.27,9083.95 29585.27,12608.91 30259.21,12608.91 30259.21,9680.87 32751.8,9680.87 32751.8,9083.95 "/>
   <polygon class="fil2" points="18952.85,11166.47 20455.45,11166.47 19704.14,10523.57 "/>
   <path class="fil1" d="M17965.56 10744.36l0 -233.19c0,-68.05 7.23,-145.24 21.99,-231.56 14.64,-87.14 44.07,-169.86 89.12,-250.65 44.9,-79.91 108.24,-147.85 190.13,-202.14 66.17,-44.07 152.47,-68.93 255.25,-77.19l1933.33 0 0 -613.41 -1925.82 0 -9.23 0 0 0.82c-165.32,7.34 -318.69,38.66 -458.41,95.55 -159.7,65.33 -297.53,158.88 -411.35,279.22 -114,120.15 -202.14,265.4 -264.7,435.33 -62.52,169.92 -93.54,358.24 -93.54,563.89l0 770.48c0,205.76 31.02,393.09 93.54,564.01 62.52,169.92 150.66,314.98 264.7,435.32 113.82,120.17 251.64,214 411.35,279.05 139.61,57.1 293.09,88.41 458.41,95.55l8.24 0 0.99 0.99 0 -0.99 1925.82 0 0 -612.59 -1933.33 0c-102.78,-8.24 -189.12,-33.03 -255.25,-77.2 -81.89,-55.12 -145.23,-121.98 -190.13,-201.96 -45.06,-80.9 -74.45,-164.5 -89.12,-250.82 -14.86,-86.32 -21.99,-163.52 -21.99,-231.39l0 -537.31 0 0.21z"/>
   <path class="fil2" d="M6760.75 9140.31l0 3495.55 2279.34 0 -950.46 -961.14 1052.98 -1052.87 -889.1 -889.11 329.55 -329.63 1218.67 1218.67 -1054.79 1054.8 948.56 959.32 560.72 0 0 -3495.55 -3495.55 0 0.07 -0.04zm1982.63 1503.05l0 0 -1218.68 1218.67 -329.55 -329.63 889.1 -889.11 -889.1 -889.1 329.55 -329.57 1218.68 1218.67 0 0.07z"/>
  </g>
 </g>
</svg>
