<svg id="Layer_1" data-name="Layer 1" xmlns="http://www.w3.org/2000/svg" viewBox="0 0 364.66 352.33"><defs><style>.cls-1{fill:#ff0505;}</style></defs><path class="cls-1" d="M291,315.24c-4.1,5.67-11,5.08-17.23,5A191.71,191.71,0,0,1,245.33,318a253.59,253.59,0,0,1-54.58-14.53c-34.82-13.93-65.4-37-90.43-64.76-25.29-28-44.08-61.88-53.14-98.58a245.55,245.55,0,0,1-7.4-57.41c-.06-7.93,2.45-14.42,11.17-16,3.75-.68,7.64-.19,11.42,0,5,.23,10.07.11,15.1.14,7.19,0,14.37.07,21.55.08,7.61,0,14.9,1.91,17.56,10,2.24,6.8,2.74,14.54,4,21.56l5.26,29.83c1.81,10.25-.81,18.53-9.33,25-9.31,7.09-21.67,15.06-17.8,28.62,2.5,8.75,9.62,16.29,15.21,23.2A278.83,278.83,0,0,0,134.6,228a284.76,284.76,0,0,0,23.26,20.5c6.45,5.11,13.49,11.53,21.81,13.24,13.37,2.74,20.83-10.19,27.84-19.18,4.37-5.62,10.38-9.24,17.67-9.19a46,46,0,0,1,7.75,1.05L263,239.74c6.89,1.21,16,1.38,22.34,4.66,8.06,4.16,7.77,12.37,7.81,20.25,0,9,.11,17.92.12,26.88,0,7.86,1.92,16.65-2.31,23.71-4,6.65,6.39,12.69,10.36,6.06,4.76-7.95,4.26-16.27,4-25.15-.31-9.87-.07-19.78-.14-29.66-.06-9.3.24-18-5.81-25.65a26.83,26.83,0,0,0-16.12-9.66c-17.19-3.4-34.56-6.37-51.86-9.16-8-1.3-16.14-.25-23.22,3.94-6,3.58-9.91,9.09-14,14.56-2.59,3.43-6.14,9.63-10.91,9.64-3.24,0-6.71-2.66-9.23-4.39-4.67-3.2-9.08-6.83-13.43-10.45C143.37,221,127,204.53,114.31,186.09c-1.76-2.55-4.42-5.94-4.42-9.22,0-2.73,2.29-4.78,4.16-6.51,3.42-3.15,7.34-5.77,11-8.62,11.69-9,14.94-21.83,12.46-35.88L132.05,94.8c-1.42-8-1.86-17.55-5.46-25-8.45-17.48-28.06-15-44.32-15-8.94,0-17.9-.52-26.82-.45-9.27.07-18.65,3.3-23.79,11.47-4.11,6.53-3.88,14.07-3.82,21.47A211.64,211.64,0,0,0,31,120.85c6.69,39.64,22,76.8,46.4,108.86,24.29,31.9,55.68,59.13,91.65,77a235,235,0,0,0,55.56,19.48c18.22,3.9,37.26,7,56,6,8.72-.47,15.61-3.84,20.76-11C305.86,315,295.46,309,291,315.24Z"/><path class="cls-1" d="M181.19,108.59c30.86,13.4,55.67,37.93,68.42,69.2,2.87,7.06,14.49,4,11.57-3.19-13.9-34.1-40-61.65-73.93-76.37-7-3-13.13,7.29-6.06,10.36Z"/><path class="cls-1" d="M198,69.26c41.23,17.84,74.35,50.86,91.3,92.61,2.86,7.06,14.48,4,11.57-3.19-18.1-44.58-52.55-80.63-96.82-99.78-7-3-13.13,7.3-6.05,10.36Z"/><path class="cls-1" d="M215.35,28.69C267.29,51.11,309,92.89,330.26,145.44c2.86,7.07,14.47,4,11.57-3.19C319.4,86.87,276.38,42.05,221.4,18.33c-7-3-13.13,7.3-6.05,10.36Z"/></svg>