<?xml version="1.0" encoding="utf-8"?>
<!-- Generator: Adobe Illustrator 24.3.0, SVG Export Plug-In . SVG Version: 6.00 Build 0)  -->
<svg version="1.1" id="Icon_Set" xmlns="http://www.w3.org/2000/svg" xmlns:xlink="http://www.w3.org/1999/xlink" x="0px" y="0px"
	 viewBox="0 0 168.83 149.94" style="enable-background:new 0 0 168.83 149.94;" xml:space="preserve">
<style type="text/css">
	.st0{fill:none;stroke:#860303;stroke-width:3;stroke-linecap:round;stroke-miterlimit:10;}
	.st1{fill:#ff0505;}
</style>
<g>
	<path class="st0" d="M22.99,43.7v73.48c0,2.64,2.14,4.78,4.78,4.78h118.57c2.64,0,4.78-2.14,4.78-4.78v-68.7
		c0-2.64-2.14-4.78-4.78-4.78H68.63"/>
	<path class="st0" d="M68.63,43.7H22.99V27.98h34.23c3.89,0,7.33,2.54,8.48,6.26L68.63,43.7z"/>
	<path class="st0" d="M117.42,121.97V99.15c0-5.12-4.15-9.28-9.28-9.28H65.97c-5.12,0-9.28,4.15-9.28,9.28v22.82"/>
	<path class="st1" d="M35.3,58.59c82.12,0,109.56,18.08,109.56,18.08V49.98H29.26v8.57C29.26,58.55,31.42,58.59,35.3,58.59z"/>
</g>
</svg>
