<svg id="Layer_1" data-name="Layer 1" xmlns="http://www.w3.org/2000/svg" viewBox="0 0 364.66 352.33"><defs><style>.cls-1{fill:#ff0505;}</style></defs><path class="cls-1" d="M245.83,56.72c17.69,17.66,28.93,43.12,27,68.43-1.18,15.43-8.63,30.7-15.78,44.2-17.1,32.32-39.36,62-62.47,90.26-5.39,6.58-10.84,13.13-16.49,19.48h8.48a668.26,668.26,0,0,1-64-84.18c-12.31-19.29-25-40.33-29.75-63-5.42-25.77,6.21-54.68,24-73.21,25.81-26.87,65.3-34.75,99.84-21.25,7.19,2.82,10.31-8.78,3.19-11.57-32.8-12.82-71-7.89-99.14,13.43-25.45,19.3-41.3,50-41.07,82.09.16,22.92,12.35,45.49,23.55,64.79,13.41,23.12,29.16,44.85,45.58,65.9,9.42,12.08,19.08,24,29.27,35.48a6,6,0,0,0,8.48,0,751.36,751.36,0,0,0,47-58.94c12-16.59,23.42-33.71,33.11-51.77,8.17-15.23,15.84-31.67,17.92-49,3.48-29-10-59.4-30.23-79.62-5.47-5.47-14,3-8.49,8.48Z"/><path class="cls-1" d="M221.55,98.19c9.08,15.91,8.33,35.91-2.79,50.65a46.12,46.12,0,0,1-41.27,17.9c-34.06-3.41-51.61-43.39-32.65-71.27,10.89-16,31-22.76,49.54-18,7.49,1.92,10.68-9.65,3.19-11.57-20.95-5.37-43.71.8-58.17,17.19-13.34,15.12-18.18,36.69-11.88,56,6.2,18.93,22.17,33.95,41.67,38.41a58.13,58.13,0,0,0,55.2-16.75c17.33-18.69,20.1-46.52,7.52-68.58-3.83-6.7-14.2-.66-10.36,6.06Z"/><path class="cls-1" d="M244.21,272.57c6.68,0,16.88-1.87,22,3.31,3.7,3.77,7,8,10.48,12l17,19.47c2.37,2.71,8.64,7.43,5.32,11.3-3.91,4.56-15,2.9-20.39,2.9H133.46c-20,0-40.08.71-60,0-3.08-.11-8.78-1.37-8.87-5.4,0-1.71,1.33-2.91,2.36-4.09l15-17.21,14.84-17c1.73-2,3.24-3.76,5.87-4.66,3.24-1.11,7.23-.62,10.61-.62h9.65c7.72,0,7.73-12,0-12s-16.84-1.26-24.19,1.28c-7.08,2.45-11.25,8.47-16,13.87L64.12,297.06c-4,4.58-10,9.82-11.26,16-2.55,12.41,9.78,20.22,20.62,20.53,2.16.06,4.32,0,6.48,0H276c7.91,0,17.67,1.21,25.06-2,11.06-4.86,14.25-17.19,6.52-26.44-4.45-5.33-9.14-10.48-13.7-15.71l-17-19.45c-5.79-6.65-12.63-9.36-21.5-9.36H244.21c-7.72,0-7.74,12,0,12Z"/><path class="cls-1" d="M153.5,294.13h57.66c7.73,0,7.74-12,0-12H153.5c-7.72,0-7.74,12,0,12Z"/><path class="cls-1" d="M236.82,306.68h30.23c7.72,0,7.74-12,0-12H236.82c-7.72,0-7.74,12,0,12Z"/><path class="cls-1" d="M127.84,294.68H97.61c-7.72,0-7.73,12,0,12h30.23c7.73,0,7.74-12,0-12Z"/></svg>