<svg id="Layer_1" data-name="Layer 1" xmlns="http://www.w3.org/2000/svg" viewBox="0 0 4487.27 4843.96"><defs><style>.cls-1{fill:#444;}.cls-2{fill:#e23737;}</style></defs><path class="cls-1" d="M3913.53,1063.94H3399.9a170.23,170.23,0,0,1-170.23-170.23V380.09l-.63-.63H1004.39c-124.2,0-224.88,100.68-224.88,224.88V2302.26h150V754.34c0-124.2,100.68-224.88,224.88-224.88H3079.67v514.25a170.23,170.23,0,0,0,170.23,170.23h514.25v2733c0,124.2-100.68,224.88-224.88,224.88H1154.39c-124.2,0-224.88-100.68-224.88-224.88V3630.26h-150v466.68c0,124.2,100.68,224.88,224.88,224.88H3689.27c124.2,0,224.88-100.68,224.88-224.88V1064.56Z"/><polygon class="cls-1" points="3914.15 1064.57 3914.15 1276.7 3701.4 1063.95 3229.67 592.22 3016.91 379.46 3229.04 379.46 3229.67 380.09 3913.53 1063.95 3914.15 1064.57"/><path class="cls-2" d="M2031.71,2733.84q-31.11-29.45-78.92-39.85-35.73-8.09-140-8.09h-76.63v560.73H1863.5q71.41,0,103.13-8.09,41.47-10.38,68.84-35.21t44.65-81.72q17.3-56.87,17.29-155.06t-17.29-150.71Q2062.84,2763.3,2031.71,2733.84Z"/><path class="cls-2" d="M1151.48,2691.68q-30.56-5.76-122.77-5.78H946.29v240.47h93.38q100.83,0,134.85-13.3t53.31-41.61q19.32-28.3,19.31-65.9,0-46.24-27.09-76.31T1151.48,2691.68Z"/><path class="cls-2" d="M3340.85,2302.27H436.22A124.69,124.69,0,0,0,311.53,2427V3505.58a124.7,124.7,0,0,0,124.69,124.69H3340.85a124.69,124.69,0,0,0,124.68-124.69V2427A124.68,124.68,0,0,0,3340.85,2302.27Zm-1945.17,631.8q-28.31,53.11-71.91,83.45t-88.67,40.13q-61.24,12.13-177.32,12.14H946.29v320.26H774.84V2542.48h274.57q156.08,0,203.48,12.71,72.84,19,122,82.88T1424,2803Q1424,2881,1395.68,2934.07Zm852.59,220.67q-31.77,92.49-90.64,149.75-44.46,43.37-120.09,67.63-56.58,17.94-151.25,17.93H1564.72V2542.48h312.34q105.64,0,161.07,16.2,74.46,22,127.58,78.06t80.83,137.3q27.69,81.23,27.71,200.31Q2274.25,3079,2248.27,3154.74Zm754-468.84H2591.39v200.57h354.77v143.42H2591.39v360.16H2419.94V2542.48h582.29Z"/></svg>