<svg id="Layer_1" data-name="Layer 1" xmlns="http://www.w3.org/2000/svg" viewBox="0 0 364.66 352.33"><defs><style>.cls-1{fill:#ff0505;}</style></defs><path class="cls-1" d="M62.57,141.89c.3-48,33.66-89.22,78.48-104.36,46.4-15.67,100.15-3.43,133.26,33.19a107.15,107.15,0,0,1,27.78,71.17c0,7.72,12,7.73,12,0C313.76,88.62,277,43.22,227.45,26.18c-50.53-17.36-110.14-3.58-146,36.54a119.84,119.84,0,0,0-30.86,79.17c0,7.72,12,7.73,12,0Z"/><path class="cls-1" d="M51,218c6.83,0,14.54,1,20.78-2.34,7.72-4.1,10.74-11.82,10.74-20.13,0-12.92.19-25.85,0-38.77-.15-9.66-6.13-18.31-15.87-20.43-3.24-.71-6.68-.47-10-.47-3.77,0-7.66-.26-11.32.82-17.18,5.07-14,25-14,38.76,0,7.31-.1,14.62,0,21.93.16,11.44,8,20,19.6,20.63,7.72.39,7.7-11.61,0-12-6.13-.31-7.6-5.24-7.6-10.34V160.88c0-3.9-.67-8.34,2.62-11.2,3.63-3.14,11.27-2.05,15.73-1.86,5.65.23,8.72,3.92,8.77,9.4.09,11.29,0,22.58,0,33.86,0,4.38.86,9.74-2.85,12.93-4,3.43-11.81,2-16.67,2C43.31,206,43.3,218,51,218Z"/><path class="cls-1" d="M313.63,206c-4.27,0-9.61.9-13.74-.35-5.36-1.63-5.78-6.54-5.78-11.19V159.65c0-4.57.14-9.38,5.29-11.31,3.93-1.47,10.06-.82,14.18-.52,6,.42,7.65,5,7.65,10.09v36c0,5.51-.37,11.71-7.6,12.07-7.68.39-7.73,12.39,0,12,11.16-.56,19.18-8.71,19.6-19.87.21-5.57,0-11.19,0-16.77v-22c0-7-1.06-13.63-6.71-18.59-6.56-5.76-15.29-5-23.41-4.86-10.85.15-20.07,7.63-20.93,18.79-.95,12.27-.07,24.91-.07,37.21,0,8.12.49,15.83,7.35,21.5s15.8,4.64,24.17,4.64C321.35,218,321.36,206,313.63,206Z"/><path class="cls-1" d="M228.37,322.74c10.48,0,20.88.26,31.16-2.22a73.89,73.89,0,0,0,36.38-21.07,67.07,67.07,0,0,0,17.63-37.15c1-7.75.55-15.75.55-23.54V213.47c0-7.72-12-7.73-12,0,0,13.5.1,27,0,40.51-.2,25-17.55,46.22-41.09,53.67-10.72,3.39-21.55,3.09-32.63,3.09-7.72,0-7.74,12,0,12Z"/><path class="cls-1" d="M219.21,321.57H185.5c-2.18,0-4.72.36-6.88,0-3.38-.56-4.83-6.75-2-9,1.55-1.22,4.91-.65,6.7-.65h27.36c2.7,0,5.81-.43,8.49,0,4.34.69,4.73,9.31,0,9.65-7.65.56-7.71,12.57,0,12,9.45-.69,15.16-7.52,15.16-16.83,0-8.74-5.29-16.15-14.48-16.77-9.67-.66-19.57-.05-29.26-.05-3.94,0-7.91-.17-11.84,0-8.6.36-14.93,6.51-15.36,15.15-.38,7.75,2.78,15.62,10.92,17.9,3.64,1,7.81.6,11.55.6h33.31C226.93,333.57,227,321.57,219.21,321.57Z"/><path class="cls-1" d="M134.9,81.65c18.37,45.65,54.15,83.63,102.88,95.95a122,122,0,0,0,29.2,3.82c7.73,0,7.74-12,0-12-38.33-.16-74.62-21.31-97.87-51a164.77,164.77,0,0,1-22.64-39.92c-2.85-7.08-14.46-4-11.57,3.19Z"/><path class="cls-1" d="M153.79,264.92c-21.43-6.37-34.69-27.41-40.58-47.83-7.14-24.73-5.16-52.5,7.13-75.3A91,91,0,0,1,154,107c6.61-4,.58-14.36-6.06-10.36a104.08,104.08,0,0,0-49.82,76.3c-3.6,27.15,2.28,57,18.94,79.15,8.53,11.34,19.78,20.35,33.51,24.43,7.42,2.2,10.59-9.37,3.19-11.57Z"/><path class="cls-1" d="M212.22,276.49c41-12.37,56.9-62.48,52.77-101.07-.82-7.6-12.83-7.68-12,0,3.52,32.88-8.13,78.69-44,89.5-7.38,2.22-4.24,13.81,3.19,11.57Z"/></svg>