<?xml version="1.0" encoding="utf-8"?>
<!-- Generator: Adobe Illustrator 26.0.3, SVG Export Plug-In . SVG Version: 6.00 Build 0)  -->
<svg version="1.1" id="Layer_1" xmlns="http://www.w3.org/2000/svg" xmlns:xlink="http://www.w3.org/1999/xlink" x="0px" y="0px"
	 viewBox="0 0 190.3 176.3" style="enable-background:new 0 0 190.3 176.3;" xml:space="preserve">
<g>
	<path d="M44.7,79.6V42.3h10.3c0.9,0,1.8-0.5,2.2-1.4c0.4-0.8,0.4-1.8-0.2-2.6L33,4.4c-0.9-1.3-3.1-1.3-4.1,0l-24,33.9
		c-0.5,0.8-0.6,1.8-0.2,2.6C5.2,41.8,6,42.3,7,42.3h10.3v18.6h5V39.8c0-1.4-1.1-2.5-2.5-2.5h-7.9L31,10.2l19.1,27.1h-7.9
		c-1.4,0-2.5,1.1-2.5,2.5v41.9c0,1.2,0.9,2.3,2.1,2.5c9.5,1.5,13.4,4.4,13.4,5.7c0,1.9-8.2,6.5-24.2,6.5S6.8,91.8,6.8,89.8
		c0-1.9,8.2-6.5,24.2-6.5v-5c-14.5,0-29.2,4-29.2,11.5v71.4c0,7.5,14.7,11.5,29.2,11.5s29.2-4,29.2-11.5V89.8
		C60.2,85.1,54.5,81.4,44.7,79.6z M31,167.8c-16,0-24.2-4.6-24.2-6.5v-7.6c5.5,3.2,14.9,4.8,24.2,4.8c9.3,0,18.7-1.6,24.2-4.8v7.6
		C55.2,163.2,46.9,167.8,31,167.8z M31,153.5c-16,0-24.2-4.6-24.2-6.5v-7.6c5.5,3.2,14.9,4.8,24.2,4.8c9.3,0,18.7-1.6,24.2-4.8v7.6
		C55.2,148.9,46.9,153.5,31,153.5z M31,139.2c-16,0-24.2-4.6-24.2-6.5v-7.6c5.5,3.2,14.9,4.8,24.2,4.8c9.3,0,18.7-1.6,24.2-4.8v7.6
		C55.2,134.6,46.9,139.2,31,139.2z M31,124.9c-16,0-24.2-4.6-24.2-6.5v-7.6c5.5,3.2,14.9,4.8,24.2,4.8c9.3,0,18.7-1.6,24.2-4.8v7.6
		C55.2,120.3,46.9,124.9,31,124.9z M31,110.6c-16,0-24.2-4.6-24.2-6.5v-7.6c5.5,3.2,14.9,4.8,24.2,4.8c9.3,0,18.7-1.6,24.2-4.8v7.6
		C55.2,106.1,46.9,110.6,31,110.6z"/>
	<rect x="17.2" y="66.5" width="5" height="5.6"/>
	<path d="M110,93.8V56.6h10.3c0.9,0,1.8-0.5,2.2-1.4c0.4-0.8,0.4-1.8-0.2-2.6l-24-33.9c-0.9-1.3-3.1-1.3-4.1,0l-24,33.9
		c-0.5,0.8-0.6,1.8-0.2,2.6c0.4,0.8,1.3,1.4,2.2,1.4h10.3v18.6h5V54.1c0-1.4-1.1-2.5-2.5-2.5h-7.9l19.1-27.1l19.1,27.1h-7.9
		c-1.4,0-2.5,1.1-2.5,2.5v41.9c0,1.2,0.9,2.3,2.1,2.5c9.5,1.5,13.4,4.4,13.4,5.7c0,1.9-8.2,6.5-24.2,6.5s-24.2-4.6-24.2-6.5
		c0-1.9,8.2-6.5,24.2-6.5v-5c-14.5,0-29.2,3.9-29.2,11.5h0v57.1c0,7.5,14.7,11.5,29.2,11.5s29.2-4,29.2-11.5v-57.1h0
		C125.5,99.4,119.9,95.7,110,93.8z M96.3,167.8c-16,0-24.2-4.6-24.2-6.5v-7.6c5.5,3.2,14.9,4.8,24.2,4.8s18.7-1.6,24.2-4.8v7.6
		C120.5,163.2,112.3,167.8,96.3,167.8z M96.3,153.5c-16,0-24.2-4.6-24.2-6.5v-7.6c5.5,3.2,14.9,4.8,24.2,4.8s18.7-1.6,24.2-4.8v7.6
		C120.5,148.9,112.3,153.5,96.3,153.5z M96.3,139.2c-16,0-24.2-4.6-24.2-6.5v-7.6c5.5,3.2,14.9,4.8,24.2,4.8s18.7-1.6,24.2-4.8v7.6
		C120.5,134.6,112.3,139.2,96.3,139.2z M96.3,124.9c-16,0-24.2-4.6-24.2-6.5v-7.6c5.5,3.2,14.9,4.8,24.2,4.8s18.7-1.6,24.2-4.8v7.6
		C120.5,120.3,112.3,124.9,96.3,124.9z"/>
	<rect x="82.6" y="80.8" width="5" height="5.6"/>
	<path d="M175.4,108.1V70.9h10.3c0.9,0,1.8-0.5,2.2-1.4c0.4-0.8,0.4-1.8-0.2-2.6l-24-33.9c-0.9-1.3-3.1-1.3-4.1,0l-24,33.9
		c-0.5,0.8-0.6,1.8-0.2,2.6c0.4,0.8,1.3,1.4,2.2,1.4H148v18.6h5V68.4c0-1.4-1.1-2.5-2.5-2.5h-7.9l19.1-27.1l19.1,27.1h-7.9
		c-1.4,0-2.5,1.1-2.5,2.5v41.9c0,1.2,0.9,2.3,2.1,2.5c9.5,1.5,13.4,4.4,13.4,5.7c0,1.9-8.2,6.5-24.2,6.5s-24.2-4.6-24.2-6.5
		c0-1.9,8.2-6.5,24.2-6.5v-5c-14.5,0-29.2,4-29.2,11.5v42.9c0,7.5,14.7,11.5,29.2,11.5c14.5,0,29.2-4,29.2-11.5v-42.9
		C190.9,113.7,185.3,110,175.4,108.1z M161.7,167.8c-16,0-24.2-4.6-24.2-6.5v-7.6c5.5,3.2,14.9,4.8,24.2,4.8
		c9.3,0,18.7-1.6,24.2-4.8v7.6C185.9,163.2,177.7,167.8,161.7,167.8z M161.7,153.5c-16,0-24.2-4.6-24.2-6.5v-7.6
		c5.5,3.2,14.9,4.8,24.2,4.8c9.3,0,18.7-1.6,24.2-4.8v7.6C185.9,148.9,177.7,153.5,161.7,153.5z M161.7,139.2
		c-16,0-24.2-4.6-24.2-6.5v-7.6c5.5,3.2,14.9,4.8,24.2,4.8c9.3,0,18.7-1.6,24.2-4.8v7.6C185.9,134.6,177.7,139.2,161.7,139.2z"/>
	<rect x="148" y="95.1" width="5" height="5.6"/>
</g>
</svg>
