<?xml version="1.0" encoding="utf-8"?>
<!-- Generator: Adobe Illustrator 26.0.3, SVG Export Plug-In . SVG Version: 6.00 Build 0)  -->
<svg version="1.1" id="Layer_1" xmlns="http://www.w3.org/2000/svg" xmlns:xlink="http://www.w3.org/1999/xlink" x="0px" y="0px"
	 viewBox="0 0 190.3 176.3" style="enable-background:new 0 0 190.3 176.3;" xml:space="preserve">
<g>
	<g>
		<g>
			<g>
				<path d="M95.2,173.3c-11.5,0-22.7-2.3-33.2-6.7c-10.1-4.3-19.3-10.4-27.1-18.3l3.5-3.5c7.4,7.4,16,13.2,25.5,17.2
					c19.8,8.4,42.7,8.4,62.5,0c9.5-4,18.1-9.8,25.5-17.2c7.4-7.4,13.2-16,17.2-25.5c4.2-9.9,6.3-20.4,6.3-31.2h5
					c0,11.5-2.3,22.7-6.7,33.2c-4.3,10.1-10.4,19.3-18.3,27.1c-7.8,7.8-16.9,14-27.1,18.3C117.9,171.1,106.7,173.3,95.2,173.3z"/>
			</g>
		</g>
	</g>
	<g>
		<path d="M95.2,150c-16.5,0-32.1-6.4-43.8-18.1l3.5-3.5C65.7,139.1,80,145,95.2,145s29.5-5.9,40.3-16.7l3.5,3.5
			C127.3,143.6,111.7,150,95.2,150z"/>
	</g>
	<g>
		<path d="M135.4,47.9c-22.2-22.2-58.3-22.2-80.5,0l-3.5-3.5c24.1-24.2,63.4-24.2,87.6,0L135.4,47.9z"/>
	</g>
	<g>
		<g>
			<path d="M99.3,108h-8.2c-6.2,0-11.2-5-11.2-11.2h5c0,3.4,2.8,6.2,6.2,6.2h8.2c3.4,0,6.2-2.8,6.2-6.2c0-3.4-2.8-6.2-6.2-6.2h-8.2
				c-6.2,0-11.2-5-11.2-11.2c0-6.2,5-11.2,11.2-11.2h8.2c6.2,0,11.2,5,11.2,11.2h-5c0-3.4-2.8-6.2-6.2-6.2h-8.2
				c-3.4,0-6.2,2.8-6.2,6.2c0,3.4,2.8,6.2,6.2,6.2h8.2c6.2,0,11.2,5,11.2,11.2C110.5,103,105.5,108,99.3,108z"/>
		</g>
		<g>
			<rect x="92.7" y="63.1" width="5" height="7.6"/>
		</g>
		<g>
			<rect x="92.7" y="105.5" width="5" height="7.6"/>
		</g>
	</g>
	<g>
		<path d="M95.2,132.4c-24.4,0-44.3-19.9-44.3-44.3c0-24.4,19.9-44.3,44.3-44.3c24.4,0,44.3,19.9,44.3,44.3
			C139.5,112.5,119.6,132.4,95.2,132.4z M95.2,48.8c-21.7,0-39.3,17.6-39.3,39.3c0,21.7,17.6,39.3,39.3,39.3
			c21.7,0,39.3-17.6,39.3-39.3C134.5,66.4,116.9,48.8,95.2,48.8z"/>
	</g>
	<g>
		<path d="M168.5,99.5l-3.4-3.7l10.5-9.5c0.5-0.4,1.1-0.6,1.7-0.6h1.2c0.7,0,1.3,0.3,1.8,0.7l9.4,9.5l-3.5,3.5l-8.3-8.4L168.5,99.5z
			"/>
	</g>
	<g>
		<g>
			<g>
				<path d="M14.9,88.1h-5c0-11.5,2.3-22.7,6.7-33.2c4.3-10.2,10.4-19.3,18.3-27.1C42.7,20,51.8,13.9,62,9.6c21-8.9,45.3-8.9,66.4,0
					c10.1,4.3,19.3,10.4,27.1,18.3l-3.5,3.5c-7.4-7.4-16-13.2-25.5-17.2c-19.8-8.4-42.7-8.4-62.5,0c-9.6,4-18.1,9.8-25.5,17.2
					C31,38.8,25.3,47.3,21.2,56.9C17,66.8,14.9,77.3,14.9,88.1z"/>
			</g>
		</g>
	</g>
	<g>
		<path d="M13,90.6h-1.2c-0.7,0-1.3-0.3-1.8-0.7l-9.4-9.5l3.5-3.5l8.3,8.4l9.4-8.5l3.4,3.7L14.7,90C14.2,90.4,13.6,90.6,13,90.6z"/>
	</g>
	<g>
		<g>
			<polygon points="53.9,133.6 51.2,131.7 49.6,129.8 53.4,126.6 54.8,128.2 56.6,129.4 			"/>
		</g>
		<g>
			<path d="M45.8,125.7l-1.4-2.1l2.1-1.4l-2.1,1.4l-1.7-1.9l3.9-3.1l1.7,1.9l1.4,2.1L45.8,125.7z M40.2,116.6l-2.2-4.7l4.6-2
				l1.9,4.5L40.2,116.6z M36,106.6l-1.3-5l4.9-1l1,4.8L36,106.6z M33.5,93.5l2.5-0.2L33.5,93.5l-0.2-2.4l4.8-0.6l0.3,2.4L36,93.3
				L33.5,93.5z M38.1,85.6l-4.8-0.4l0.6-5.2l5,0.7L38.1,85.6z M40.2,73.2l-2.5-0.4l-2.4-0.7l0.7-2.3l4.7,1.1L40.2,73.2z M37.8,72.8
				L37.8,72.8L37.8,72.8z M43.6,63.9L41.3,63l-2.2-1.1l1.1-2.2l4.5,2L43.6,63.9z M41.3,63L41.3,63L41.3,63z M47,57.4L43,54.7
				l3.1-4.2l3.9,3.1L47,57.4z"/>
		</g>
		<g>
			<polygon points="53.2,49.5 49.7,46.4 51.4,44.3 53.2,42.6 56.7,46.1 			"/>
		</g>
	</g>
	<g>
		<g>
			<polygon points="136.9,49.6 133.7,45.8 137.5,42.6 139.1,44.5 139.1,44.5 140.5,46.2 			"/>
		</g>
		<g>
			<path d="M144.3,125.7l-3.9-3.1l3.1-3.8l3.9,2.7L144.3,125.7z M150.2,116.5l-4.5-2l1-2.2l2.3,0.9l2.2,1.1L150.2,116.5z
				 M154.4,106.5l-4.7-1.1l0.5-2.4l2.5,0.4l2.4,0.7L154.4,106.5z M156.5,96.2l-5-0.7l0.7-4.9l4.8,0.4L156.5,96.2z M152.3,85.7
				l-0.3-2.4l2.5-0.5l2.5-0.2l-2.5,0.2l2.5-0.2l0.2,2.4L152.3,85.7z M150.7,75.7l-1-4.8l4.7-1.3l1.3,5L150.7,75.7z M147.8,66.3
				l-1.9-4.5l4.4-2.1l2.2,4.7L147.8,66.3z M143.7,57.6l-1.7-1.9l-1.4-2.1l3.9-3.1l1.4,2.1l-2.1,1.4l2.1-1.4l1.7,1.9L143.7,57.6z"/>
		</g>
		<g>
			<polygon points="136.8,133.7 133.7,129.7 135.6,128.2 137.3,126.3 140.8,129.8 138.8,132.1 			"/>
		</g>
	</g>
</g>
</svg>
