<?xml version="1.0" encoding="utf-8"?>
<!-- Generator: Adobe Illustrator 26.0.3, SVG Export Plug-In . SVG Version: 6.00 Build 0)  -->
<svg version="1.1" id="Layer_1" xmlns="http://www.w3.org/2000/svg" xmlns:xlink="http://www.w3.org/1999/xlink" x="0px" y="0px"
	 viewBox="0 0 190.3 176.3" style="enable-background:new 0 0 190.3 176.3;" xml:space="preserve">
<g>
	<path d="M2.9,91.1v69.7c0,7.4,14.4,11.3,28.5,11.3S60,168.1,60,160.7V91.1C60,76.3,2.9,76.3,2.9,91.1z M31.4,167
		c-15.5,0-23.5-4.4-23.5-6.3v-7.3c5.4,3,14.5,4.6,23.5,4.6s18.1-1.6,23.5-4.6v7.3C55,162.6,46.9,167,31.4,167z M31.4,153.1
		c-15.5,0-23.5-4.4-23.5-6.3v-7.3c5.4,3,14.5,4.6,23.5,4.6s18.1-1.6,23.5-4.6v7.3C55,148.7,46.9,153.1,31.4,153.1z M31.4,139.1
		c-15.5,0-23.5-4.4-23.5-6.3v-7.3c5.4,3,14.5,4.6,23.5,4.6s18.1-1.6,23.5-4.6v7.3C55,134.7,46.9,139.1,31.4,139.1z M31.4,125.2
		c-15.5,0-23.5-4.4-23.5-6.3v-7.3c5.4,3,14.5,4.6,23.5,4.6s18.1-1.6,23.5-4.6v7.3C55,120.8,46.9,125.2,31.4,125.2z M31.4,111.3
		c-15.5,0-23.5-4.4-23.5-6.3v-7.3c5.4,3,14.5,4.6,23.5,4.6s18.1-1.6,23.5-4.6v7.3C55,106.9,46.9,111.3,31.4,111.3z M31.4,97.3
		c-15.5,0-23.5-4.4-23.5-6.3s8-6.3,23.5-6.3S55,89.2,55,91.1S46.9,97.3,31.4,97.3z"/>
	<path d="M66.6,105v55.7c0,7.4,14.4,11.3,28.5,11.3s28.5-3.9,28.5-11.3V105C123.7,90.2,66.6,90.2,66.6,105z M95.2,167
		c-15.5,0-23.5-4.4-23.5-6.3v-7.3c5.4,3,14.5,4.6,23.5,4.6c9,0,18.1-1.6,23.5-4.6v7.3C118.7,162.6,110.7,167,95.2,167z M95.2,153.1
		c-15.5,0-23.5-4.4-23.5-6.3v-7.3c5.4,3,14.5,4.6,23.5,4.6c9,0,18.1-1.6,23.5-4.6v7.3C118.7,148.7,110.7,153.1,95.2,153.1z
		 M95.2,139.1c-15.5,0-23.5-4.4-23.5-6.3v-7.3c5.4,3,14.5,4.6,23.5,4.6c9,0,18.1-1.6,23.5-4.6v7.3
		C118.7,134.7,110.7,139.1,95.2,139.1z M95.2,125.2c-15.5,0-23.5-4.4-23.5-6.3v-7.3c5.4,3,14.5,4.6,23.5,4.6c9,0,18.1-1.6,23.5-4.6
		v7.3C118.7,120.8,110.7,125.2,95.2,125.2z M95.2,111.3c-15.5,0-23.5-4.4-23.5-6.3s8-6.3,23.5-6.3c15.5,0,23.5,4.4,23.5,6.3
		S110.7,111.3,95.2,111.3z"/>
	<path d="M185,4.3H5.4C4,4.3,2.9,5.4,2.9,6.8v71.5h5v-69h174.6v97.1h5V6.8C187.5,5.4,186.3,4.3,185,4.3z"/>
	<path d="M126,98.7h27.1c1.4,0,2.5-1.1,2.5-2.5c0-8.6,7-15.6,15.6-15.6c1.4,0,2.5-1.1,2.5-2.5V38.6c0-1.4-1.1-2.5-2.5-2.5
		c-8.6,0-15.6-7-15.6-15.6c0-1.4-1.1-2.5-2.5-2.5H37.2c-1.4,0-2.5,1.1-2.5,2.5c0,8.6-7,15.6-15.6,15.6c-1.4,0-2.5,1.1-2.5,2.5v35.8
		h5V41c9.4-1.1,16.8-8.6,18-18h111.2c1.1,9.4,8.6,16.8,18,18v34.8c-9.4,1.1-16.8,8.6-18,18H126V98.7z"/>
	<path d="M173.7,28.8v-8.3c0-1.4-1.1-2.5-2.5-2.5H163v5h5.7v5.8H173.7z"/>
	<path d="M21.6,23h5.8v-5h-8.3c-1.4,0-2.5,1.1-2.5,2.5v8.2h5V23z"/>
	<path d="M168.7,93.7H163v5h8.3c1.4,0,2.5-1.1,2.5-2.5V88h-5V93.7z"/>
	<rect x="38.3" y="55.9" width="5.5" height="5"/>
	<rect x="54.8" y="55.9" width="5.5" height="5"/>
	<rect x="130" y="55.9" width="5.5" height="5"/>
	<rect x="146.5" y="55.9" width="5.5" height="5"/>
	<path d="M130.4,118.9v41.8c0,7.4,14.4,11.3,28.5,11.3c14.2,0,28.5-3.9,28.5-11.3v-41.8C187.5,104.1,130.4,104.1,130.4,118.9z
		 M158.9,167c-15.5,0-23.5-4.4-23.5-6.3v-7.3c5.4,3,14.5,4.6,23.5,4.6c9,0,18.1-1.6,23.5-4.6v7.3C182.5,162.6,174.4,167,158.9,167z
		 M158.9,153.1c-15.5,0-23.5-4.4-23.5-6.3v-7.3c5.4,3,14.5,4.6,23.5,4.6c9,0,18.1-1.6,23.5-4.6v7.3
		C182.5,148.7,174.4,153.1,158.9,153.1z M158.9,139.1c-15.5,0-23.5-4.4-23.5-6.3v-7.3c5.4,3,14.5,4.6,23.5,4.6
		c9,0,18.1-1.6,23.5-4.6v7.3C182.5,134.7,174.4,139.1,158.9,139.1z M158.9,125.2c-15.5,0-23.5-4.4-23.5-6.3s8-6.3,23.5-6.3
		c15.5,0,23.5,4.4,23.5,6.3S174.4,125.2,158.9,125.2z"/>
	<path d="M98.7,70.9h-7.1c-2.8,0-5-2.2-5-5h-5c0,5.5,4.5,10,10,10h1v4h5v-4h1c5.5,0,10-4.5,10-10c0-5.5-4.5-10-10-10h-7.1
		c-2.8,0-5-2.2-5-5c0-2.8,2.2-5,5-5h7.1c2.8,0,5,2.2,5,5h5c0-5.5-4.5-10-10-10h-1v-4h-5v4h-1c-5.5,0-10,4.5-10,10
		c0,5.5,4.5,10,10,10h7.1c2.8,0,5,2.2,5,5C103.7,68.6,101.4,70.9,98.7,70.9z"/>
</g>
</svg>
