<?xml version="1.0" encoding="utf-8"?>
<!-- Generator: Adobe Illustrator 25.4.1, SVG Export Plug-In . SVG Version: 6.00 Build 0)  -->
<svg version="1.1" id="Layer_1" xmlns="http://www.w3.org/2000/svg" xmlns:xlink="http://www.w3.org/1999/xlink" x="0px" y="0px"
	 viewBox="0 0 200 200" style="enable-background:new 0 0 200 200;" xml:space="preserve">
<style type="text/css">
	.st0{fill:none;stroke:#161616;stroke-linecap:square;stroke-linejoin:round;stroke-miterlimit:10;}
	.st1{fill:none;stroke:#161616;stroke-linecap:round;stroke-linejoin:round;stroke-miterlimit:10;}
	.st2{fill:#161616;}
	.st3{fill:#161616;}
	.st4{fill:none;stroke:#161616;stroke-width:2;stroke-linecap:square;stroke-linejoin:round;stroke-miterlimit:10;}
</style>
<g>
	<path class="st4" d="M126.7,134.4c0-3.7-3-6.7-6.7-6.7H80c-3.7,0-6.7,3-6.7,6.7v36.7c0,3.7,3,6.7,6.7,6.7h40c3.7,0,6.7-3,6.7-6.7
		V134.4z"/>
	<path class="st4" d="M116.7,117.7c0-9.2-7.5-16.7-16.7-16.7c-9.2,0-16.7,7.5-16.7,16.7v10h33.3V117.7z"/>
	<line class="st4" x1="100" y1="164.4" x2="100" y2="151.1"/>
	<line class="st0" x1="176.7" y1="62.7" x2="23.3" y2="62.7"/>
	<line class="st0" x1="105" y1="49.4" x2="95" y2="49.4"/>
	<line class="st0" x1="166.4" y1="49.4" x2="156.4" y2="49.4"/>
	<line class="st0" x1="105" y1="49.4" x2="95" y2="49.4"/>
	<line class="st0" x1="130" y1="49.4" x2="70" y2="49.4"/>
	<rect x="36.3" y="76.1" class="st0" width="23.3" height="23.3"/>
	<polyline class="st0" points="136.7,159.4 176.7,159.4 176.7,36 23.3,36 23.3,159.4 63.3,159.4 	"/>
	<line class="st0" x1="83.3" y1="79.4" x2="116.7" y2="79.4"/>
	<line class="st0" x1="95" y1="92.7" x2="105" y2="92.7"/>
	<line class="st0" x1="81.7" y1="92.7" x2="118.3" y2="92.7"/>
</g>
</svg>
