<?xml version="1.0" encoding="utf-8"?>
<!-- Generator: Adobe Illustrator 25.4.1, SVG Export Plug-In . SVG Version: 6.00 Build 0)  -->
<svg version="1.1" id="Layer_1" xmlns="http://www.w3.org/2000/svg" xmlns:xlink="http://www.w3.org/1999/xlink" x="0px" y="0px"
	 viewBox="0 0 200 200" style="enable-background:new 0 0 200 200;" xml:space="preserve">
<style type="text/css">
	.st0{fill:none;stroke:#161616;stroke-linecap:square;stroke-linejoin:round;stroke-miterlimit:10;}
	.st1{fill:none;stroke:#161616;stroke-linecap:round;stroke-linejoin:round;stroke-miterlimit:10;}
	.st2{fill:#161616;}
	.st3{fill:#161616;}
	.st4{fill:none;stroke:#161616;stroke-width:2;stroke-linecap:square;stroke-linejoin:round;stroke-miterlimit:10;}
</style>
<path class="st0" d="M56.6,36.8h-27c-6.4,0-11.6,5.2-11.6,11.6v104.1"/>
<line class="st0" x1="18.1" y1="52.2" x2="56.6" y2="52.2"/>
<g>
	<line class="st0" x1="115.4" y1="152.5" x2="84.6" y2="152.5"/>
	<path class="st0" d="M76.9,152.5H11.3v3.9c0,6.4,5.2,11.6,11.6,11.6h154.2c6.4,0,11.6-5.2,11.6-11.6v-3.9h-65.6"/>
	<path class="st0" d="M181,152.5V48.4c0-6.4-5.2-11.6-11.6-11.6h-27"/>
	<line class="st0" x1="142.4" y1="52.2" x2="181" y2="52.2"/>
	<path class="st4" d="M129.5,18.3v37.2c0,5.2-2.3,10.1-6.4,13.3l-22,17.6l-22-17.6c-4-3.2-6.4-8.1-6.4-13.3V18.3l28.4-5.7
		L129.5,18.3z"/>
	<polyline class="st4" points="115.8,38.1 98.8,55.2 87.4,43.8 	"/>
	<g>
		<line class="st0" x1="81" y1="113" x2="119.7" y2="113"/>
		<polygon class="st0" points="119.3,109.9 100.4,99.8 81.4,109.9 119.3,109.9 		"/>
		<line class="st0" x1="82.1" y1="132.6" x2="118.7" y2="132.6"/>
		<line class="st0" x1="79.9" y1="136.1" x2="120.8" y2="136.1"/>
		<line class="st0" x1="77.6" y1="139.7" x2="123.1" y2="139.7"/>
		<line class="st0" x1="84.7" y1="113.1" x2="84.7" y2="132.6"/>
		<line class="st0" x1="89.4" y1="113.1" x2="89.4" y2="132.6"/>
		<line class="st0" x1="97.6" y1="113.1" x2="97.6" y2="132.6"/>
		<line class="st0" x1="102.4" y1="113.1" x2="102.4" y2="132.6"/>
		<line class="st0" x1="110.6" y1="113.1" x2="110.6" y2="132.6"/>
		<line class="st0" x1="115.3" y1="113.1" x2="115.3" y2="132.6"/>
	</g>
</g>
</svg>
