<svg id="Layer_1" data-name="Layer 1" xmlns="http://www.w3.org/2000/svg" viewBox="0 0 470.57 477.17"><defs><style>.cls-1,.cls-2,.cls-3{fill:none;stroke:#2b3e7d;}.cls-1,.cls-2{stroke-linecap:round;stroke-linejoin:round;}.cls-1{stroke-width:3px;}.cls-2,.cls-3{stroke-width:14.04px;}.cls-3{stroke-miterlimit:10;}</style></defs><polyline class="cls-1" points="261.89 289.72 235.28 309.75 208.68 289.72"/><polyline class="cls-1" points="220.56 301.35 197.01 401.06 235.28 436.36"/><polyline class="cls-1" points="250.01 301.35 273.56 401.06 235.28 436.36"/><path class="cls-2" d="M299.78,396.15l92.8-19.22-12.27-61.41a60.51,60.51,0,0,0-20.75-34.69c-6.82-5.61-13.72-9.22-20.33-10.68l-52.45-15.22a11.43,11.43,0,0,1-8.16-9.65l-2.42-20.76c14.69-11.4,25.54-28.44,30.76-48.34,9.36-.83,16.56-11.25,16.56-24.39,0-12.14-6.1-22-14.46-24.06"/><path class="cls-2" d="M161.06,127.86c-8.12,2.32-14,12-14,23.93,0,13.13,7.15,23.53,16.5,24.39,5.24,19.88,16.1,36.93,30.77,48.34l-2.4,20.76a11.4,11.4,0,0,1-4.95,8.15,11.55,11.55,0,0,1-3.2,1.5L131.52,270.1c-6.78,1.49-13.69,5.11-20.5,10.73a60.34,60.34,0,0,0-20.76,34.69L78,376.93l83,17.21"/><path class="cls-2" d="M309.06,127.73s4.34-86.91-73.79-86.91-74.21,87-74.21,87"/><path class="cls-2" d="M166.63,90.52c3-6.23,9-11,15.5-13.4,10.59-3.85,22.45-.77,32.7,3.91,14.8,6.75,27.72,14.7,44.31,16.53,15.81,1.74,30.29,0,44.49-7.26"/><polyline class="cls-3" points="278.06 240.42 235.28 278.72 192.51 240.42"/><line class="cls-3" x1="303.62" y1="343.38" x2="352.03" y2="334.27"/></svg>