<svg id="Layer_1" data-name="Layer 1" xmlns="http://www.w3.org/2000/svg" viewBox="0 0 470.57 477.17"><defs><style>.cls-1,.cls-2{fill:none;stroke:#2b3e7d;stroke-linecap:round;stroke-linejoin:round;}.cls-1{stroke-width:14.04px;}.cls-2{stroke-width:3px;}.cls-3{fill:#2b3e7d;}</style></defs><path class="cls-1" d="M350.63,307.23a61.79,61.79,0,0,0-18.37-25.72c-6.95-5.71-14-9.39-20.73-10.87l-53.47-15.53a11.31,11.31,0,0,1-3.26-1.53,11.64,11.64,0,0,1-5.06-8.3l-2.47-21.16c15-11.62,26-29,31.36-49.29,9.55-.84,16.88-11.46,16.88-24.86,0-12.38-6.22-22.39-14.73-24.52"/><path class="cls-1" d="M129.9,125.58c-8.27,2.36-14.26,12.23-14.26,24.39,0,13.38,7.29,24,16.82,24.86,5.34,20.27,16.41,37.65,31.37,49.29l-2.45,21.15a11.59,11.59,0,0,1-8.31,9.84L99.79,270.58c-6.91,1.52-14,5.21-20.9,10.93a61.51,61.51,0,0,0-21.16,35.37L45.22,379.49a2.94,2.94,0,0,0,.61,2.5,3,3,0,0,0,2.32,1.08H291.52"/><path class="cls-1" d="M280.78,125.45s4.41-88.6-75.22-88.6-75.66,88.73-75.66,88.73"/><path class="cls-1" d="M135.57,87.51c3.11-6.35,9.17-11.24,15.82-13.65,10.79-3.93,22.88-.79,33.32,4,15.09,6.89,28.27,15,45.18,16.85,16.11,1.78,30.88,0,45.35-7.39"/><line class="cls-1" x1="156.33" y1="253.59" x2="205.56" y2="304.62"/><line class="cls-1" x1="254.78" y1="253.59" x2="205.56" y2="304.62"/><polyline class="cls-1" points="237.81 304.62 205.56 338.05 173.3 304.62"/><path class="cls-2" d="M425.42,380.87A59.46,59.46,0,1,0,366,440.33,59.46,59.46,0,0,0,425.42,380.87Z"/><path class="cls-3" d="M385.57,366.21v-1.77A19.58,19.58,0,0,0,370,345.26v-5.12h-8v5.12a19.58,19.58,0,0,0-15.61,19.18c0,8.31,5.47,15.5,14.27,18.78,1.16.43,2.34.81,3.52,1.2a49.14,49.14,0,0,1,5.87,2.2c4.8,2.28,7.55,6.18,7.55,10.69a11.62,11.62,0,0,1-23.23.23l0-1.73h-8l0,1.79A19.62,19.62,0,0,0,362,416.48v5.13h8v-5.13A19.45,19.45,0,0,0,381.12,385c-2.86-3.69-7.2-5.58-10.66-6.81-.94-.33-1.9-.64-2.87-1-3.1-1-6.3-2-8.8-3.91a11.33,11.33,0,0,1-4.44-8.91,11.62,11.62,0,1,1,23.23,0v1.77Z"/></svg>