<svg id="Layer_1" data-name="Layer 1" xmlns="http://www.w3.org/2000/svg" viewBox="0 0 470.57 477.17"><defs><style>.cls-1,.cls-2,.cls-3,.cls-5,.cls-6{fill:none;}.cls-1,.cls-2,.cls-3{stroke:#2b3e7d;}.cls-1,.cls-3,.cls-5,.cls-6{stroke-linecap:round;stroke-linejoin:round;}.cls-1{stroke-width:14.04px;}.cls-2{stroke-miterlimit:10;}.cls-2,.cls-3,.cls-5,.cls-6{stroke-width:3px;}.cls-4{fill:#2b3e7d;}.cls-5,.cls-6{stroke:#4e535d;}.cls-6{stroke-dasharray:0.01 7.49;}</style></defs><path class="cls-1" d="M207.85,326.85h49a97.65,97.65,0,0,0,1.31,24.8c1.89,9.43,8.82,17.79,19.07,23h0c2.87,1.47,1.53,4.94-1.91,4.94H140.38c-3.43,0-4.77-3.47-1.91-4.94h0c10.25-5.25,17.18-13.61,19.07-23a97.92,97.92,0,0,0,1.32-24.8Z"/><path class="cls-1" d="M211.13,306.69a3.28,3.28,0,1,1-3.28-3.28A3.28,3.28,0,0,1,211.13,306.69Z"/><path class="cls-1" d="M299,326.85H56.44a16.57,16.57,0,0,1-16.57-16.57V286.52h65"/><path class="cls-1" d="M299,286.52H39.87v-171a18,18,0,0,1,18-18h300a18,18,0,0,1,18,18v69.43"/><line class="cls-2" x1="419.69" y1="343.55" x2="331.97" y2="343.55"/><path class="cls-2" d="M422.28,379.63H329.37a8.42,8.42,0,0,1-8.42-8.42V207.35a8.42,8.42,0,0,1,8.42-8.42h92.91a8.42,8.42,0,0,1,8.42,8.42V371.21A8.42,8.42,0,0,1,422.28,379.63Z"/><path class="cls-2" d="M378.75,361.76a2.93,2.93,0,1,0-2.92,2.92A2.93,2.93,0,0,0,378.75,361.76Z"/><polyline class="cls-3" points="364.95 217.21 375.83 217.21 386.7 217.21"/><path class="cls-4" d="M221.46,210.62a10.61,10.61,0,0,0-3.22-7.79q-3.21-3.21-10.67-5.75-10.24-3.09-15.46-8.26T186.89,175q0-8.37,4.81-13.64t13.24-6.34v-11.2h8V155.1q8.46,1.11,13.15,7t4.69,15.61h-9.93q0-6.43-3.2-10.44a10.66,10.66,0,0,0-8.82-4q-6,0-9,3.12t-3,8.54a10.63,10.63,0,0,0,3.1,8q3.09,3,11.1,5.78Q221.42,192,226.43,197t5,13.56q0,8.73-5.22,13.87t-14.35,6.11v9.73h-8v-9.68a23.28,23.28,0,0,1-14.3-6.36q-5.56-5.44-5.37-16l.1-.25H194c0,5.21,1.32,8.91,4,11.13a14.51,14.51,0,0,0,9.63,3.32q6.54,0,10.22-3.12A10.72,10.72,0,0,0,221.46,210.62Z"/><line class="cls-5" x1="253.19" y1="192.04" x2="253.19" y2="192.04"/><line class="cls-6" x1="276.33" y1="192.04" x2="287.94" y2="192.04"/><line class="cls-5" x1="299.54" y1="192.04" x2="299.54" y2="192.04"/><line class="cls-5" x1="116.16" y1="192.04" x2="116.16" y2="192.04"/><line class="cls-6" x1="139.3" y1="192.04" x2="150.9" y2="192.04"/><line class="cls-5" x1="162.51" y1="192.04" x2="162.51" y2="192.04"/></svg>