<svg id="Layer_1" data-name="Layer 1" xmlns="http://www.w3.org/2000/svg" viewBox="0 0 470.57 477.17"><defs><style>.cls-1,.cls-2,.cls-3{fill:none;stroke-linecap:round;}.cls-1,.cls-3{stroke:#2b3e7d;}.cls-1{stroke-linejoin:round;stroke-width:14.04px;}.cls-2{stroke:#4e535d;}.cls-2,.cls-3{stroke-miterlimit:10;stroke-width:3px;}</style></defs><path class="cls-1" d="M430.28,176.43V378.36a19.09,19.09,0,0,1-19.09,19.09H59.38a19.09,19.09,0,0,1-19.09-19.09V176.43"/><path class="cls-2" d="M107.09,115.45a17.55,17.55,0,0,0-1.43,6.92,18.07,18.07,0,1,0,36.14,0,17.55,17.55,0,0,0-1.43-6.92"/><line class="cls-2" x1="123.73" y1="122.06" x2="123.73" y2="79.73"/><path class="cls-2" d="M363.48,115.45a17.55,17.55,0,0,1,1.43,6.92,18.07,18.07,0,1,1-36.14,0,17.55,17.55,0,0,1,1.43-6.92"/><line class="cls-2" x1="346.84" y1="122.06" x2="346.84" y2="79.73"/><line class="cls-1" x1="326.86" y1="91.46" x2="143.71" y2="91.46"/><path class="cls-1" d="M103.76,91.46H59.38a19.09,19.09,0,0,0-19.09,19.09v65.88h390V110.55a19.09,19.09,0,0,0-19.09-19.09H366.81"/><line class="cls-3" x1="150.79" y1="218.28" x2="150.79" y2="257.92"/><line class="cls-3" x1="207.12" y1="218.28" x2="207.12" y2="257.92"/><line class="cls-3" x1="263.45" y1="218.28" x2="263.45" y2="257.92"/><line class="cls-3" x1="319.78" y1="218.28" x2="319.78" y2="257.92"/><line class="cls-3" x1="150.79" y1="315.3" x2="150.79" y2="354.94"/><line class="cls-3" x1="207.12" y1="315.3" x2="207.12" y2="354.94"/><line class="cls-3" x1="263.45" y1="315.3" x2="263.45" y2="354.94"/><line class="cls-3" x1="319.78" y1="315.3" x2="319.78" y2="354.94"/><line class="cls-3" x1="119.03" y1="286.94" x2="351.54" y2="286.94"/></svg>