<svg id="Layer_1" data-name="Layer 1" xmlns="http://www.w3.org/2000/svg" viewBox="0 0 470.57 477.17"><defs><style>.cls-1,.cls-2{fill:none;stroke:#2b3e7d;}.cls-1{stroke-linecap:round;stroke-linejoin:round;stroke-width:14.04px;}.cls-2{stroke-miterlimit:10;stroke-width:3px;}</style></defs><path class="cls-1" d="M207.52,327.91H257.1a98.94,98.94,0,0,0,1.33,25.1c1.91,9.54,8.92,18,19.3,23.32h0c2.9,1.49,1.54,5-1.93,5H139.24c-3.48,0-4.83-3.51-1.93-5h0c10.37-5.31,17.38-13.78,19.3-23.32a98.94,98.94,0,0,0,1.33-25.1Z"/><path class="cls-1" d="M210.84,307.51a3.32,3.32,0,1,1-3.32-3.32A3.32,3.32,0,0,1,210.84,307.51Z"/><path class="cls-1" d="M305.14,327.91H54.28a16.76,16.76,0,0,1-16.76-16.77v-24h65.76"/><path class="cls-1" d="M306.13,287.1H37.52V114A18.18,18.18,0,0,1,55.7,95.85H359.34A18.18,18.18,0,0,1,377.52,114v71.15"/><line class="cls-2" x1="421.91" y1="344.82" x2="333.13" y2="344.82"/><path class="cls-2" d="M424.53,381.33h-94A8.52,8.52,0,0,1,322,372.8V207a8.51,8.51,0,0,1,8.52-8.52h94a8.51,8.51,0,0,1,8.52,8.52V372.8A8.52,8.52,0,0,1,424.53,381.33Z"/><path class="cls-2" d="M380.48,363.24a3,3,0,1,0-3,3A3,3,0,0,0,380.48,363.24Z"/><polyline class="cls-2" points="366.51 216.95 377.52 216.95 388.52 216.95"/><line class="cls-2" x1="266.85" y1="214.56" x2="315.32" y2="150.46"/><line class="cls-2" x1="226.95" y1="192.22" x2="246.45" y2="214.84"/><line class="cls-2" x1="184.24" y1="217.17" x2="206.06" y2="192.22"/><line class="cls-2" x1="145.9" y1="192.7" x2="164.56" y2="216.87"/><line class="cls-2" x1="105.25" y1="217.75" x2="124.72" y2="191.96"/><path class="cls-2" d="M150.78,182.84a15.67,15.67,0,1,0-15.67,15.67A15.67,15.67,0,0,0,150.78,182.84Z"/><path class="cls-2" d="M190.24,227.53a15.67,15.67,0,1,0-15.67,15.67A15.66,15.66,0,0,0,190.24,227.53Z"/><path class="cls-2" d="M232.35,182.84a15.67,15.67,0,1,0-15.67,15.67A15.67,15.67,0,0,0,232.35,182.84Z"/><path class="cls-2" d="M272.32,224.33A15.67,15.67,0,1,0,256.65,240,15.66,15.66,0,0,0,272.32,224.33Z"/><path class="cls-2" d="M341,140.49a15.67,15.67,0,1,0-15.67,15.67A15.68,15.68,0,0,0,341,140.49Z"/><path class="cls-2" d="M111.13,227.53A15.67,15.67,0,1,0,95.46,243.2,15.66,15.66,0,0,0,111.13,227.53Z"/></svg>