<svg id="Layer_1" data-name="Layer 1" xmlns="http://www.w3.org/2000/svg" viewBox="0 0 147.56 155.49"><defs><style>.cls-1{fill:#1189f6;}</style></defs><path class="cls-1" d="M110.53,101.12a1.51,1.51,0,0,1-1.4-1,18.23,18.23,0,0,0-5.41-7.57,14.5,14.5,0,0,0-6-3.16l-17.13-5a4.89,4.89,0,0,1-1.46-.69,5.16,5.16,0,0,1-2.26-3.71L76,72.47l.67-.52a27.65,27.65,0,0,0,9.46-14.9l.27-1,1-.09c2.25-.2,4-3,4-6.43,0-3.17-1.5-5.84-3.56-6.36a1.5,1.5,0,0,1,.73-2.91c3.43.86,5.83,4.67,5.83,9.27s-2.38,8.3-5.68,9.22a30.75,30.75,0,0,1-9.6,15.05l.69,5.92a2.19,2.19,0,0,0,1,1.58,2.28,2.28,0,0,0,.61.29l17,4.94a17.55,17.55,0,0,1,7.14,3.75,21.22,21.22,0,0,1,6.31,8.82,1.51,1.51,0,0,1-.88,1.94A1.61,1.61,0,0,1,110.53,101.12Z"/><path class="cls-1" d="M96.49,125.28H14.15a2.46,2.46,0,0,1-1.88-.88,2.42,2.42,0,0,1-.51-2.09l4-19.92A21.14,21.14,0,0,1,23,90.26a17.67,17.67,0,0,1,7.29-3.79l16.89-4.9a2.28,2.28,0,0,0,.61-.29,2.19,2.19,0,0,0,1-1.58l.69-5.92a30.76,30.76,0,0,1-9.61-15.05c-3.29-.93-5.66-4.68-5.66-9.22s2.31-8.27,5.63-9.22a1.5,1.5,0,1,1,.82,2.89c-2,.57-3.45,3.23-3.45,6.33,0,3.4,1.75,6.22,4,6.43L42.2,56l.27,1A27.81,27.81,0,0,0,51.93,72l.67.52-.88,7.58a5.2,5.2,0,0,1-2.26,3.72,5.25,5.25,0,0,1-1.46.68L31,89.38a14.79,14.79,0,0,0-6.12,3.2A18.06,18.06,0,0,0,18.68,103l-3.86,19.3H96.49a1.5,1.5,0,0,1,0,3Zm-81.8-2.37v0Z"/><path class="cls-1" d="M40.2,43.24a1.51,1.51,0,0,1-1.5-1.44c0-.57-.53-14.22,7.79-22.92C50.88,14.29,56.87,12,64.31,12s13.43,2.33,17.79,6.92c8.28,8.7,7.7,22.31,7.67,22.89a1.51,1.51,0,0,1-1.57,1.42,1.49,1.49,0,0,1-1.42-1.57c0-.13.53-12.93-6.86-20.68-3.78-4-9-6-15.61-6s-11.84,2-15.64,6c-7.44,7.76-7,20.6-7,20.73a1.48,1.48,0,0,1-1.43,1.56Z"/><path class="cls-1" d="M75.62,33.6a31.94,31.94,0,0,1-3.72-.22c-4.52-.49-8.28-2.32-11.92-4.09-1-.47-1.94-.95-2.94-1.4-3.78-1.73-7-2.14-9.48-1.22a7.54,7.54,0,0,0-4.2,3.6A1.5,1.5,0,0,1,40.66,29a10.5,10.5,0,0,1,5.87-5.1c3.28-1.2,7.24-.75,11.76,1.31,1,.46,2,.95,3,1.43,3.57,1.73,6.94,3.37,10.93,3.81a23.06,23.06,0,0,0,13.61-2.2,1.5,1.5,0,1,1,1.36,2.67A24.7,24.7,0,0,1,75.62,33.6Z"/><path class="cls-1" d="M64.31,100.28a1.46,1.46,0,0,1-1.08-.46L47.54,83.56a1.5,1.5,0,0,1,2.16-2.08L65.39,97.74a1.5,1.5,0,0,1-1.08,2.54Z"/><path class="cls-1" d="M64.31,100.28a1.5,1.5,0,0,1-1.08-2.54L78.91,81.48a1.5,1.5,0,0,1,2.16,2.08L65.39,99.82A1.49,1.49,0,0,1,64.31,100.28Z"/><path class="cls-1" d="M81.71,87.57,67.2,102.94a4.06,4.06,0,0,1-5.78,0L46.91,87.57,41,89.37l23.25,24.88.07-.07.06.07L87.62,89.37Z"/><path class="cls-1" d="M115.42,143.52a20.45,20.45,0,1,1,20.44-20.44A20.47,20.47,0,0,1,115.42,143.52Zm0-37.89a17.45,17.45,0,1,0,17.44,17.45A17.47,17.47,0,0,0,115.42,105.63Z"/><path class="cls-1" d="M116.7,132.27H114l-6.48-18h2.72l4,11.56c.57,1.71,1,2.94,1.15,3.68h0a39.75,39.75,0,0,1,1.26-3.87l4.12-11.37h2.54Z"/></svg>