<?xml version="1.0" encoding="utf-8"?>
<!-- Generator: Adobe Illustrator 26.0.3, SVG Export Plug-In . SVG Version: 6.00 Build 0)  -->
<svg version="1.1" id="Layer_1" xmlns="http://www.w3.org/2000/svg" xmlns:xlink="http://www.w3.org/1999/xlink" x="0px" y="0px"
	 viewBox="0 0 133 80" style="enable-background:new 0 0 133 80;" xml:space="preserve">
<style type="text/css">
	.st0{fill:none;}
	.st1{filter:url(#Adobe_OpacityMaskFilter);}
	.st2{fill-rule:evenodd;clip-rule:evenodd;fill:#FFFFFF;}
	.st3{mask:url(#mask-2_00000049211085852249499660000015591957004651657647_);fill-rule:evenodd;clip-rule:evenodd;fill:#1A1918;}
	.st4{fill-rule:evenodd;clip-rule:evenodd;fill:#FF0000;}
</style>
<g id="Page-1">
	<g id="Artboard-25" transform="translate(-890.000000, -328.000000)">
		<g id="Group-7" transform="translate(884.000000, 291.000000)">
			<rect id="Rectangle-738-Copy-4" y="0" class="st0" width="144" height="144"/>
			<g id="hand" transform="translate(6.545455, 37.636364)">
				<g id="Group-3">
					<defs>
						<filter id="Adobe_OpacityMaskFilter" filterUnits="userSpaceOnUse" x="0" y="0.3" width="132.4" height="78.3">
							<feColorMatrix  type="matrix" values="1 0 0 0 0  0 1 0 0 0  0 0 1 0 0  0 0 0 1 0"/>
						</filter>
					</defs>
					
						<mask maskUnits="userSpaceOnUse" x="0" y="0.3" width="132.4" height="78.3" id="mask-2_00000049211085852249499660000015591957004651657647_">
						<g class="st1">
							<polygon id="path-1_00000076585992898847630920000014539245758409284997_" class="st2" points="132.4,78.5 132.4,0.3 0,0.3 
								0,78.5 							"/>
						</g>
					</mask>
					<path id="Fill-1" class="st3" d="M57.8,71.6c0,0.6,0,1.2,0,1.7c1.3,0.9,2.8,2.7,4,2.5c1.4-0.2,2.5-2.1,3.7-3.3
						c-1.2-1.2-2.3-3.2-3.6-3.4C60.7,68.9,59.2,70.7,57.8,71.6L57.8,71.6z M52.1,71.4c2.8,0.1,9.2-6.1,8.9-8.3
						c-0.1-1.1-0.9-2.6-1.8-3.1c-0.9-0.5-2.7-0.5-3.5,0.1c-2.1,1.6-4,3.6-5.7,5.7c-0.6,0.8-0.7,2.6-0.3,3.6
						C50.2,70.4,51.5,71,52.1,71.4L52.1,71.4z M47.3,49.1c-0.1-2.6-2.9-4.6-4.9-3.1c-2.5,1.9-4.7,4.2-6.5,6.7
						c-1.4,1.9,0.5,4.6,2.9,4.7C41.3,57.7,47.4,51.6,47.3,49.1L47.3,49.1z M45.9,64.6c2.4,0.1,8.6-6.4,8.4-8.7c-0.2-2.3-3-4.3-4.8-3
						c-2.5,1.8-4.8,4.1-6.7,6.6C41.4,61.5,43.4,64.5,45.9,64.6L45.9,64.6z M113.7,39.4c1.1-0.9,2.3-1.8,3.1-2.4
						c-8.8-9-17.3-17.7-26-26.5c-1,0.8-2.1,1.8-3.2,2.6C96.7,22.2,105.2,30.8,113.7,39.4L113.7,39.4z M17.9,39.7
						c9-9.1,17.6-17.8,26.3-26.5c-0.9-0.9-2-1.9-2.6-2.5c-8.8,8.9-17.3,17.6-26.1,26.5C16.2,37.9,17.2,38.9,17.9,39.7L17.9,39.7z
						 M106.6,36.1c-3.3-3.3-6.6-6.5-9.9-9.7c-4-3.8-7.4-9.2-12.1-11.1c-4.9-1.9-11.1-0.5-16.7-0.5c-0.4,0-0.7-0.1-1,0
						c-0.8,0.2-1.7,0.4-2.2,0.9c-4.1,4.1-8.3,8.1-12.2,12.3c-2.5,2.7-2.1,6.2,0.4,8.6c2.3,2.2,6,2.2,8.6-0.1c2.1-1.9,4-4,6-6
						c4.3-4.3,7-4.3,11.3,0.1c5.5,5.6,11,11.4,16.4,17C99,43.7,102.6,40.1,106.6,36.1z M119.1,38.4c-1.8,1.6-3.5,3.2-5.4,4.9
						c-1.8-1.7-3.5-3.3-5.2-4.8c-3.6,3.7-7,7.4-10.6,11.2c2.7,6.3,1.5,8.9-5.3,10.8c-0.4,3.4-1.9,5.9-5.7,6.6
						c-0.6,0.1-1.3,1.2-1.5,2c-0.9,3.4-3,5.1-6.4,4.8c-1.8-0.2-2.9,0.1-3.5,1.9c-0.2,0.6-0.8,1.5-1.4,1.5c-3.4,0.4-6.8,0.3-10.1,1
						c-3.7,0.8-5.7,0-8.4-4.5c-6.2,0.4-7.5-0.6-9.4-6.6c-3.3-0.4-5.7-1.8-6.3-5.5c-0.1-0.6-0.9-1.2-1.6-1.5
						c-5.4-2.3-6.5-5.1-3.9-10.4c-3.6-3.6-7.1-7.1-10.9-10.9c-1.4,1.3-3.1,2.8-5,4.6c-1.8-1.7-3.5-3.3-5.3-5
						c-1.7,1.6-3.4,3.2-5.4,5.1c-2.6-3.1-5.1-6-7.8-9.3c0.3-0.3,1-1.2,1.8-2.1c9.9-10,19.8-20,29.6-30c2-2.1,3.3-2.3,5.3-0.1
						c3.4,3.6,6.5,8.2,10.8,10c4.1,1.7,9.5,0.5,14.3,0.5c6.8,0,13.6,0.2,20.4-0.1c1.8-0.1,3.8-1,5.1-2.2c3.1-2.7,5.9-5.8,8.8-8.8
						c1.5-1.6,2.5-1.5,4.1,0c10.3,10.6,20.7,21,31.2,31.5c1.2,1.2,1.6,2.1,0.2,3.5c-2.2,2.3-4.2,4.7-6.6,7.4
						C122.5,41.6,120.9,40.1,119.1,38.4z"/>
				</g>
				<path id="Fill-4" class="st2" d="M61.4,15.9c-3.2,3.1-6.5,6.1-9.6,9.2c-4.1,4.1-4.4,9.8-0.8,13.3c3.8,3.7,8.7,3.3,13.1-1
					c2-2,4-4,6-6c1.9-1.9,3.9-2,5.9-0.1c6.5,6.5,13,13.1,19.5,19.6c1.7,1.8,2.2,3.8,0.3,5.6c-1.8,1.7-3.7,1.2-5.3-0.4
					c-2.8-3-5.5-6.1-8.2-9.2c-0.5,0.4-1.1,0.7-1.6,1.1c0.4,0.9,0.5,2,1.1,2.7c2.1,2.4,4.4,4.6,6.7,6.8c1.9,1.8,2.5,3.9,0.5,5.9
					c-1.9,1.9-3.8,1.1-5.5-0.6c-2.1-2.2-4.3-4.4-6.5-6.5c-0.8-0.7-1.7-1.3-2.5-1.9c-0.3,0.2-0.6,0.5-0.9,0.7
					c0.5,0.9,0.8,1.9,1.4,2.6c2.2,2.4,4.6,4.7,6.9,7.1c1.7,1.8,2.1,3.8,0.2,5.6c-1.8,1.7-3.7,1.2-5.3-0.5c-2.3-2.3-4.4-4.6-6.8-6.8
					c-0.8-0.7-1.9-1.1-2.8-1.6c-0.3,0.4-0.6,0.8-0.9,1.1c1.9,2,3.8,3.9,5.6,5.9c0.8,0.9,1.9,1.8,2.1,2.8c0.2,1.1-0.1,2.8-0.9,3.5
					c-0.9,0.8-2.6,1-3.8,0.8c-0.6-0.1-1.2-1.8-1.2-2.8c0.1-3.6-2-5.4-4.8-6.6c0.9-5.9,0.2-7.2-5-9.4c-0.6-0.3-1.1-1-1.5-1.6
					c-0.1-0.2,0-0.5-0.1-0.7c-0.5-0.9-0.9-2.5-1.5-2.7c-5-0.9-5.1-7-9.2-8.5c-3.9-1.5-6.3,1.5-9.4,4.6c-1.8-2-3.4-4.1-5.2-5.9
					c-1.7-1.8-3.6-3.3-6-5.5c5.3-5.3,10.5-9.7,14.8-14.9c4.6-5.5,9.7-8.1,16.8-7c1.2,0.2,2.5,0,3.8,0C60.8,15.2,61.1,15.5,61.4,15.9
					"/>
				<path id="Fill-5" class="st2" d="M106.6,36.1c-4,4-7.5,7.6-11.4,11.6c-5.5-5.7-10.9-11.4-16.4-17c-4.3-4.4-7.1-4.4-11.3-0.1
					c-2,2-3.9,4.1-6,6c-2.6,2.4-6.3,2.4-8.6,0.1c-2.5-2.4-2.8-5.9-0.4-8.6c3.9-4.3,8.1-8.3,12.2-12.3c0.5-0.5,1.4-0.7,2.2-0.9
					c0.3-0.1,0.7,0,1,0c5.6,0,11.8-1.4,16.7,0.5c4.7,1.9,8.1,7.2,12.1,11.1C99.9,29.5,103.2,32.8,106.6,36.1"/>
				<path id="Fill-6" class="st4" d="M17.9,39.7c-0.8-0.8-1.7-1.8-2.4-2.5c8.7-8.9,17.3-17.6,26.1-26.5c0.6,0.6,1.7,1.6,2.6,2.5
					C35.5,21.9,26.9,30.6,17.9,39.7"/>
				<path id="Fill-7" class="st4" d="M113.7,39.4c-8.5-8.6-17-17.2-26-26.2c1-0.9,2.2-1.8,3.2-2.6c8.6,8.8,17.2,17.5,26,26.5
					C116,37.6,114.8,38.5,113.7,39.4"/>
				<path id="Fill-8" class="st2" d="M45.9,64.6c-2.4-0.1-4.5-3.1-3-5c1.8-2.5,4.2-4.8,6.7-6.6c1.8-1.3,4.6,0.7,4.8,3
					C54.5,58.2,48.2,64.6,45.9,64.6"/>
				<path id="Fill-9" class="st2" d="M47.3,49.1c0.1,2.5-6,8.6-8.5,8.4c-2.4-0.2-4.3-2.8-2.9-4.7c1.8-2.5,4-4.9,6.5-6.7
					C44.4,44.5,47.3,46.5,47.3,49.1"/>
				<path id="Fill-10" class="st2" d="M52.1,71.4c-0.5-0.4-1.9-1-2.3-2c-0.4-1-0.4-2.8,0.3-3.6c1.6-2.1,3.6-4.1,5.7-5.7
					c0.8-0.6,2.6-0.6,3.5-0.1c0.9,0.5,1.7,2,1.8,3.1C61.2,65.4,54.9,71.5,52.1,71.4"/>
				<path id="Fill-11" class="st2" d="M57.8,71.6c1.4-0.9,2.9-2.7,4-2.5c1.4,0.2,2.4,2.2,3.6,3.4c-1.2,1.2-2.3,3.1-3.7,3.3
					c-1.2,0.2-2.7-1.6-4-2.5C57.8,72.7,57.8,72.2,57.8,71.6"/>
			</g>
		</g>
	</g>
</g>
</svg>
