<?xml version="1.0" encoding="utf-8"?>
<!-- Generator: Adobe Illustrator 26.0.3, SVG Export Plug-In . SVG Version: 6.00 Build 0)  -->
<svg version="1.1" id="Layer_1" xmlns="http://www.w3.org/2000/svg" xmlns:xlink="http://www.w3.org/1999/xlink" x="0px" y="0px"
	 viewBox="0 0 108 68" style="enable-background:new 0 0 108 68;" xml:space="preserve">
<style type="text/css">
	.st0{fill:none;}
	.st1{fill-rule:evenodd;clip-rule:evenodd;}
	.st2{fill-rule:evenodd;clip-rule:evenodd;fill:#FF0000;}
</style>
<desc>Created with Sketch.</desc>
<g id="Artboard-25" transform="translate(-365.000000, -515.000000)">
	<g id="Group-10" transform="translate(357.000000, 480.000000)">
		<rect id="Rectangle-738-Copy" y="0" class="st0" width="120" height="120"/>
		<g id="bicycle-_x28_2_x29_" transform="translate(8.181818, 35.454545)">
			<path id="Fill-1" class="st1" d="M34.7,26.5l-2.3,4.2c3.7,2.7,6.3,6.9,6.9,11.6h4.8C43.5,35.7,39.9,30.1,34.7,26.5L34.7,26.5z"/>
			<path id="Fill-2" class="st1" d="M22.1,62c-9.6,0-17.4-7.8-17.4-17.4c0-9.6,7.8-17.4,17.4-17.4c2.1,0,4.2,0.4,6.1,1.1l2.3-4.2
				c-2.6-1.1-5.4-1.7-8.4-1.7C9.9,22.5,0,32.5,0,44.7c0,12.2,9.9,22.1,22.1,22.1c11.4,0,20.8-8.7,22-19.8h-4.8
				C38.2,55.5,30.9,62,22.1,62L22.1,62z"/>
			<path id="Fill-3" class="st1" d="M85.4,22.5c-3,0-5.8,0.6-8.4,1.7l2.3,4.2c1.9-0.7,4-1.1,6.1-1.1c9.6,0,17.4,7.8,17.4,17.4
				c0,9.6-7.8,17.4-17.4,17.4C75.8,62,68,54.3,68,44.7c0-5.7,2.8-10.8,7.1-14l-2.3-4.2c-5.8,4-9.6,10.7-9.6,18.2
				c0,12.2,9.9,22.1,22.1,22.1c12.2,0,22.1-9.9,22.1-22.1C107.5,32.5,97.6,22.5,85.4,22.5L85.4,22.5z"/>
			<path id="Fill-4" class="st2" d="M83.3,45.8c0.4,0.8,1.3,1.2,2.1,1.2c0.4,0,0.8-0.1,1.1-0.3c1.2-0.6,1.6-2.1,1-3.2l-15.2-28
				l5.9-10.8h-1.4c-1.3,0-2.4-1.1-2.4-2.4c0-0.4,0.1-0.8,0.3-1.1l-6.5,11.9H39.4L37.7,10h-5.4l3,5.5L20,43.5c-0.4,0.7-0.4,1.6,0,2.4
				c0.4,0.7,1.2,1.2,2.1,1.2h31.6c0.9,0,1.7-0.5,2.1-1.2l13.7-25.3l5.5,10.1L83.3,45.8z M52.3,42.3H26.2l13.2-24.4h26.2L52.3,42.3z"
				/>
			<path id="Fill-5" class="st1" d="M76.7,4.8h6c2.4,0,4.3,1.9,4.3,4.3c0,1.3,1.1,2.4,2.4,2.4c1.3,0,2.4-1.1,2.4-2.4
				c0-5-4.1-9.1-9.1-9.1h-6c-0.9,0-1.7,0.5-2.1,1.3c-0.2,0.3-0.3,0.7-0.3,1.1C74.3,3.7,75.4,4.8,76.7,4.8L76.7,4.8z"/>
			<path id="Fill-6" class="st1" d="M41.9,10c1.3,0,2.4-1.1,2.4-2.4s-1.1-2.4-2.4-2.4H28.1c-1.3,0-2.4,1.1-2.4,2.4s1.1,2.4,2.4,2.4
				H41.9z"/>
		</g>
	</g>
</g>
</svg>
