<?xml version="1.0" encoding="utf-8"?>
<!-- Generator: Adobe Illustrator 26.0.3, SVG Export Plug-In . SVG Version: 6.00 Build 0)  -->
<svg version="1.1" id="Layer_1" xmlns="http://www.w3.org/2000/svg" xmlns:xlink="http://www.w3.org/1999/xlink" x="0px" y="0px"
	 viewBox="0 0 96 94" style="enable-background:new 0 0 96 94;" xml:space="preserve">
<style type="text/css">
	.st0{fill:none;}
	.st1{fill-rule:evenodd;clip-rule:evenodd;fill:#FF0000;}
	.st2{fill-rule:evenodd;clip-rule:evenodd;fill:#FF0000;stroke:#979797;}
	.st3{fill-rule:evenodd;clip-rule:evenodd;}
</style>
<g id="Page-1">
	<g id="Artboard-25" transform="translate(-669.000000, -309.000000)">
		<g id="Group-9" transform="translate(656.000000, 297.000000)">
			<rect id="Rectangle-738-Copy-2" y="0" class="st0" width="120" height="120"/>
			<g id="Group-4" transform="translate(13.636364, 12.272727)">
				<path id="Rectangle-736" class="st1" d="M11.9,35.3h2.7c4.4,0,8,3.6,8,8v17.3c0,4.4-3.6,8-8,8h-2.7c-4.4,0-8-3.6-8-8V43.3
					C3.9,38.9,7.5,35.3,11.9,35.3z"/>
				<path id="Rectangle-736_00000141421389684910207010000018024304246974106272_" class="st1" d="M80.8,35.3h2.7c4.4,0,8,3.6,8,8
					v17.3c0,4.4-3.6,8-8,8h-2.7c-4.4,0-8-3.6-8-8V43.3C72.8,38.9,76.4,35.3,80.8,35.3z"/>
				<ellipse id="Oval-81" class="st2" cx="49.2" cy="84.3" rx="5.9" ry="5.9"/>
				<path id="headset" class="st3" d="M81.9,32.6C81.9,32.6,81.8,32.6,81.9,32.6C80.8,14.7,65.5,0,47.3,0C29,0,13.7,14.7,12.7,32.6
					c0,0-0.1,0-0.1,0C5.7,32.6,0,38.3,0,45.2v12.6c0,6.9,5.7,12.5,12.6,12.5c6.9,0,12.6-5.6,12.6-12.5V45.2c0-4.6-2.6-8.6-6.3-10.8
					C19,18.8,31.5,6.3,47.3,6.3s28.3,12.5,28.3,28.1c-3.7,2.2-6.3,6.2-6.3,10.8v12.6c0,4.8,2.8,9,6.9,11.1
					c-3.5,4.3-10.3,10.9-19.5,12c-1.4-3.5-4.9-6.1-8.8-6.1c-5,0-9.4,4.4-9.4,9.4c0,5,4.4,9.4,9.4,9.4c4.5,0,7.8-2.8,8.9-6.4
					C70.9,85.8,80,74.5,83.2,70.2c6.3-0.6,11.3-5.9,11.3-12.4V45.2C94.5,38.3,88.8,32.6,81.9,32.6L81.9,32.6z M18.9,57.7
					c0,3.8-2.5,6.3-6.3,6.3c-3.8,0-6.3-2.5-6.3-6.3V45.2c0-3.8,2.5-6.3,6.3-6.3c3.8,0,6.3,2.5,6.3,6.3V57.7z M47.9,87.2
					c-1.9,0-3.2-1.3-3.2-3.1c0-1.9,1.3-3.1,3.2-3.1c1.9,0,3.2,1.3,3.2,3.1C51,86,49.8,87.2,47.9,87.2L47.9,87.2z M88.2,57.7
					c0,3.8-2.5,6.3-6.3,6.3c-3.8,0-6.3-2.5-6.3-6.3V45.2c0-3.8,2.5-6.3,6.3-6.3c3.8,0,6.3,2.5,6.3,6.3V57.7z"/>
			</g>
		</g>
	</g>
</g>
</svg>
