<?xml version="1.0" encoding="utf-8"?>
<!-- Generator: Adobe Illustrator 26.0.3, SVG Export Plug-In . SVG Version: 6.00 Build 0)  -->
<svg version="1.1" id="Layer_1" xmlns="http://www.w3.org/2000/svg" xmlns:xlink="http://www.w3.org/1999/xlink" x="0px" y="0px"
	 viewBox="0 0 88 80" style="enable-background:new 0 0 88 80;" xml:space="preserve">
<style type="text/css">
	.st0{fill:none;}
	.st1{fill-rule:evenodd;clip-rule:evenodd;fill:#FF0000;}
	.st2{fill-rule:evenodd;clip-rule:evenodd;}
</style>
<desc>Created with Sketch.</desc>
<g id="Page-1">
	<g id="Artboard-25" transform="translate(-627.000000, -500.000000)">
		<g id="Group-8" transform="translate(608.000000, 480.000000)">
			<rect id="Rectangle-738-Copy-3" y="0" class="st0" width="120" height="120"/>
			<g id="Group" transform="translate(19.090909, 20.454545)">
				<path id="Fill-1" class="st1" d="M79.6,10.2c0,5.6-17.6,10.2-39.3,10.2C18.6,20.3,1,15.8,1,10.2C1,4.6,18.6,0,40.3,0
					C62,0,79.6,4.6,79.6,10.2L79.6,10.2z"/>
				<path id="Fill-2" class="st2" d="M12.4,31.1c7.9,2.3,17.7,3.7,27.8,3.6C62.6,34.5,73,29.3,73,29.3c4.2-1.8,6.7-3.8,6.7-5.6v-8.2
					c0-0.1,0-0.2,0-0.3c-1.4,2.3-4.8,4-7.9,5.2v5.2c0,0.7-0.6,1.3-1.3,1.3c-0.7,0-1.3-0.6-1.3-1.3v-4.4c-0.8,0.2-1.5,0.4-2.1,0.6
					v6.3c0,1-0.8,1.7-1.7,1.7c-1,0-1.7-0.8-1.7-1.7v-5.6c-6.5,1.2-14.6,2-23.2,2c-20.7,0-37.6-4.1-39.4-9.3c0,0.1,0,0.2,0,0.3v8.4
					C0.9,26.3,5.2,29,12.4,31.1L12.4,31.1z"/>
				<path id="Fill-3" class="st2" d="M87.1,37.6c-1.4,2.3-4.8,4-7.9,5.2V48c0,0.7-0.6,1.3-1.3,1.3c-0.7,0-1.3-0.6-1.3-1.3v-4.4
					c-0.8,0.2-1.5,0.4-2.1,0.6v6.3c0,1-0.8,1.7-1.7,1.7c-1,0-1.7-0.8-1.7-1.7V45c-6.5,1.2-14.6,2-23.2,2c-20.7,0-37.6-4.1-39.4-9.3
					c0,0.1,0,0.2,0,0.3v8.4c0,2.4,4.3,5.1,11.5,7.2c7.9,2.3,17.7,3.7,27.8,3.6c22.3-0.2,32.7-5.4,32.7-5.4c4.2-1.8,6.7-3.8,6.7-5.6
					v-8.2C87.1,37.8,87.1,37.7,87.1,37.6L87.1,37.6z"/>
				<path id="Fill-4" class="st2" d="M39.4,68.9c-8.7,0-16.7-0.7-23.2-2v5.6c0,1-0.8,1.7-1.7,1.7c-1,0-1.7-0.8-1.7-1.7v-6.3
					c-0.6-0.1-1.3-0.3-2.1-0.6V70c0,0.7-0.6,1.3-1.3,1.3C8.5,71.3,8,70.7,8,70v-5.2c-3.1-1.2-6.6-2.9-7.9-5.2c0,0.1,0,0.2,0,0.3v8.2
					c0,1.8,2.4,3.8,6.7,5.6c0,0,10.4,5.2,32.7,5.4c10.1,0.1,20-1.3,27.8-3.6c7.2-2.1,11.5-4.8,11.5-7.2v-8.4c0-0.1,0-0.2,0-0.3
					C77,64.8,60,68.9,39.4,68.9L39.4,68.9z"/>
				<path id="Fill-5" class="st2" d="M41.6,38.5c-10.1,0.3-20-1.3-27.8-3.6c-2-0.6-3.7-1.2-5.2-1.8c0.8,5.4,18.1,9.8,39.3,9.8
					c21.7,0,39.3-4.5,39.3-10.2c0-2-2.2-3.9-6.1-5.4v0.3c0,1.9-2.7,4-7.3,5.9C73.7,33.4,63.4,37.9,41.6,38.5L41.6,38.5z"/>
				<path id="Fill-6" class="st2" d="M39.5,64.9c21.2,0,38.5-4.3,39.3-9.8c-1.5,0.6-3.3,1.3-5.2,1.8c-7.9,2.3-17.7,3.8-27.8,3.6
					c-21.8-0.6-32.1-5.1-32.1-5.1c-4.6-1.9-7.3-4-7.3-5.9v-0.3c-3.9,1.6-6.1,3.4-6.1,5.4C0.2,60.3,17.8,64.9,39.5,64.9L39.5,64.9z"
					/>
			</g>
		</g>
	</g>
</g>
</svg>
