<svg id="Layer_1" data-name="Layer 1" xmlns="http://www.w3.org/2000/svg" viewBox="0 0 100 100"><defs><style>.cls-1{fill:#5284ff;}.cls-2{fill:#20201d;}</style></defs><path class="cls-1" d="M56.71,32a1,1,0,0,1-.56-.18l-7.32-5.23A1,1,0,0,1,50,25l6.65,4.75,10.55-10.5a1,1,0,0,1,1.26-.09l7.52,5.71L81,18.76a1,1,0,0,1,1.36-.13A1,1,0,0,1,82.47,20l-5.65,6.8A1,1,0,0,1,75.5,27l-7.59-5.76L57.39,31.67A1,1,0,0,1,56.71,32Z"/><path class="cls-1" d="M81.73,24.43a1,1,0,0,1-1-1V20.34H77.64a1,1,0,0,1,0-1.93h4.09a1,1,0,0,1,1,1v4.08A1,1,0,0,1,81.73,24.43Z"/><path class="cls-1" d="M72.89,41.39a1,1,0,0,1,0-1.93L76,39.3l-.16-3.12a1,1,0,0,1,.92-1,.93.93,0,0,1,1,.91l.21,4.08a1,1,0,0,1-.92,1l-4.08.21Z"/><path class="cls-1" d="M49.56,46.29a1,1,0,0,1-.72-.32,1,1,0,0,1,.08-1.37L55,39.18a1,1,0,0,1,1.22,0l3.74,2.8,8.88-9a1,1,0,0,1,1.32-.05l6.62,5.79a1,1,0,0,1-1.27,1.45l-5.93-5.19-8.84,9a1,1,0,0,1-1.26.1l-3.78-2.84L50.2,46A.92.92,0,0,1,49.56,46.29Z"/><path class="cls-1" d="M29.65,43.24a1,1,0,0,1-1-1V29.73a1,1,0,1,1,1.92,0V42.28A1,1,0,0,1,29.65,43.24Z"/><path class="cls-1" d="M29.65,26.68a1,1,0,0,1-1-1V19.31a1,1,0,1,1,1.92,0v6.41A1,1,0,0,1,29.65,26.68Z"/><path class="cls-1" d="M31.48,26.68H27.82a1,1,0,1,1,0-1.93h3.66a1,1,0,0,1,0,1.93Z"/><path class="cls-1" d="M38.53,43.1a1,1,0,0,1-1-1V38.25a1,1,0,1,1,1.93,0v3.89A1,1,0,0,1,38.53,43.1Z"/><path class="cls-1" d="M38.53,34.86a1,1,0,0,1-1-1V19.44a1,1,0,0,1,1.93,0V33.9A1,1,0,0,1,38.53,34.86Z"/><path class="cls-1" d="M40.36,34.86H36.69a1,1,0,0,1,0-1.93h3.67a1,1,0,0,1,0,1.93Z"/><path class="cls-2" d="M31.9,89a1,1,0,0,1-.79-.4,1,1,0,0,1,.22-1.34A1.91,1.91,0,0,0,32,86c0-.28.12-1.73-1.29-1.92l-7.31-1.25a1,1,0,0,1-.71-.56,1,1,0,0,1,.05-.9l3.48-5.65a1,1,0,0,1,1.64,1L25.1,81.12l5.87,1a3.47,3.47,0,0,1,2.92,4,3.84,3.84,0,0,1-1.43,2.66A1,1,0,0,1,31.9,89Z"/><path class="cls-2" d="M75.22,89.08h0L16.87,89a3.73,3.73,0,0,1-3.34-2,4.93,4.93,0,0,1-.14-5l7.48-12.59c2.47-3.84,5.06-4,9.08-4h7.57c3.54,0,8.53,3,8.53,9.62a1,1,0,0,1-1.93,0c0-5.81-4.45-7.69-6.6-7.69H30c-4,0-5.6.25-7.44,3.12L15.05,83a3.05,3.05,0,0,0,.13,3A1.92,1.92,0,0,0,16.83,87l58.39.11a1,1,0,1,1,0,1.93Z"/><path class="cls-2" d="M33.19,63c-4.46,0-7.45-3.43-7.45-8.53s3-8.54,7.45-8.54,7.45,3.43,7.45,8.54S37.65,63,33.19,63Zm0-15.14c-4.08,0-5.52,3.56-5.52,6.61s1.44,6.61,5.52,6.61,5.53-3.56,5.53-6.61S37.27,47.87,33.19,47.87Z"/><path class="cls-2" d="M41.6,89.06a1,1,0,1,1,0-1.93L67.36,87V83.68a1,1,0,0,1,0-.3l4.79-15H48.24L43.47,84a1,1,0,0,1-.92.68H37.49a1,1,0,0,1,0-1.93h4.35L46.6,67.17a1,1,0,0,1,.93-.68h26a1,1,0,0,1,.77.4.92.92,0,0,1,.14.86L69.28,83.82V88a1,1,0,0,1-1,1l-26.72.09Z"/><path class="cls-2" d="M86.42,53.45h-43a1,1,0,0,1,0-1.93h43a1.43,1.43,0,0,0,1.42-1.42V14.27a1.43,1.43,0,0,0-1.42-1.42H21.93a1.43,1.43,0,0,0-1.43,1.42V50.1a1.43,1.43,0,0,0,1.43,1.42h1.19a1,1,0,0,1,0,1.93H21.93a3.36,3.36,0,0,1-3.36-3.35V14.27a3.36,3.36,0,0,1,3.36-3.35H86.42a3.36,3.36,0,0,1,3.35,3.35V50.1A3.36,3.36,0,0,1,86.42,53.45Z"/></svg>