<svg id="Layer_1" data-name="Layer 1" xmlns="http://www.w3.org/2000/svg" viewBox="0 0 100 100"><defs><style>.cls-1{fill:#20201d;}.cls-2{fill:#d5d839;}.cls-3{fill:#c9c300;}</style></defs><path class="cls-1" d="M55,77.43A1,1,0,0,1,54,76.7a21.7,21.7,0,0,1-.64-8.45,1,1,0,0,1,1.1-.8,1,1,0,0,1,.81,1.1,19.55,19.55,0,0,0,.6,7.68,1,1,0,0,1-.7,1.17A1,1,0,0,1,55,77.43Z"/><path class="cls-1" d="M85.74,73.64a.93.93,0,0,1-.57-.19,15.39,15.39,0,0,1-2.27-2,1,1,0,1,1,1.44-1.28,14.43,14.43,0,0,0,2,1.7,1,1,0,0,1,.2,1.35A.93.93,0,0,1,85.74,73.64Z"/><path class="cls-1" d="M61.47,89.36a3.47,3.47,0,0,1-2.86-1.49L54,81.17a4.79,4.79,0,0,1-.77-2.72,3.19,3.19,0,0,1,1.26-2.67l.39-.27c1.6-1.1,4.1-.12,5.18,1.45l4.63,6.71a3.48,3.48,0,0,1-.89,4.82l-.39.27A3.45,3.45,0,0,1,61.47,89.36ZM56,77.1l-.39.27a1.38,1.38,0,0,0-.42,1.11,2.94,2.94,0,0,0,.43,1.6l4.59,6.69a1.53,1.53,0,0,0,2.13.4l.4-.27a1.51,1.51,0,0,0,.63-1,1.48,1.48,0,0,0-.24-1.14l-4.63-6.72c-.56-.81-1.93-1.34-2.5-1Z"/><path class="cls-1" d="M80.4,86.09h-.15l-.57,0A4,4,0,0,1,75.87,82l.33-9.87a5.29,5.29,0,0,1,1.2-3,3.77,3.77,0,0,1,2.95-1.5l.58,0a3.64,3.64,0,0,1,2.49,1.22,4.89,4.89,0,0,1,1.3,3.38l-.37,10.06a4,4,0,0,1-3.95,3.82Zm-.15-16.57a1.89,1.89,0,0,0-1.36.8,3.33,3.33,0,0,0-.77,1.85L77.8,82a2,2,0,0,0,2,2.11l.57,0a2,2,0,0,0,1.46-.55,2,2,0,0,0,.65-1.41l.36-10.06a2.92,2.92,0,0,0-.78-2,1.72,1.72,0,0,0-1.15-.6l-.58,0Z"/><path class="cls-1" d="M73.44,87.28a3.7,3.7,0,0,1-3.62-3l-1.63-8.9a4.77,4.77,0,0,1,.41-2.91,3.35,3.35,0,0,1,2.33-2l.52-.1c2-.38,4.11,1.64,4.48,3.58l1.64,8.79A3.7,3.7,0,0,1,77,85.56a3.64,3.64,0,0,1-2.36,1.55l-.51.1A4,4,0,0,1,73.44,87.28Zm-1.63-15-.51.1a1.54,1.54,0,0,0-1,.9A2.87,2.87,0,0,0,70.09,75l1.62,8.9a1.78,1.78,0,0,0,2.06,1.39l.51-.1a1.73,1.73,0,0,0,1.12-.74,1.77,1.77,0,0,0,.28-1.32L74,74.36C73.83,73.28,72.62,72.17,71.81,72.32Z"/><path class="cls-1" d="M67.53,89.15a3.69,3.69,0,0,1-3.45-2.38L60.77,78a3.92,3.92,0,0,1,2-5l.49-.19c1.93-.73,4.25.87,5,2.74L71.45,84a3.67,3.67,0,0,1-2.13,4.75l-.48.19A3.79,3.79,0,0,1,67.53,89.15ZM64,74.65l-.49.18a1.68,1.68,0,0,0-.9,1,2.27,2.27,0,0,0,0,1.52l3.31,8.75a1.76,1.76,0,0,0,2.27,1l.48-.19a1.75,1.75,0,0,0,1-2.27l-3.21-8.38C66.08,75.31,64.79,74.33,64,74.65Z"/><path class="cls-1" d="M89.26,77.7A2.59,2.59,0,0,1,88,77.4,8.76,8.76,0,0,1,86,75.63c-2-2.68-.34-5.83.84-7.13a1,1,0,0,1,1.36-.07,1,1,0,0,1,.07,1.36c-.09.1-2.3,2.61-.77,4.63a6.71,6.71,0,0,0,1.46,1.28c.42.22,1.16-.09,1.8-.74a4.45,4.45,0,0,0,.79-5.22l-.15-.26a13,13,0,0,0-2.12-2.63c-.76-.85-1.77-2-3.12-3.54-.51-.58-3.59-3.55-4.13-4a1,1,0,1,1,1.27-1.45c.59.52,3.73,3.54,4.31,4.21l3.1,3.52a14,14,0,0,1,2.38,3l.13.23a6.36,6.36,0,0,1-1.08,7.51A4.1,4.1,0,0,1,89.26,77.7Z"/><path class="cls-1" d="M45.05,77.43a1,1,0,0,1-.24,0,1,1,0,0,1-.7-1.17,20.11,20.11,0,0,0,.64-7.43,1,1,0,0,1,.82-1.08.94.94,0,0,1,1.09.82A22.06,22.06,0,0,1,46,76.7,1,1,0,0,1,45.05,77.43Z"/><path class="cls-1" d="M14.26,73.64a.93.93,0,0,1-.77-.39,1,1,0,0,1,.2-1.35,14.43,14.43,0,0,0,2-1.7,1,1,0,1,1,1.44,1.28,15.39,15.39,0,0,1-2.27,2A.93.93,0,0,1,14.26,73.64Z"/><path class="cls-1" d="M38.53,89.36a3.45,3.45,0,0,1-2-.6l-.39-.27a3.48,3.48,0,0,1-.89-4.82L39.92,77c1.08-1.57,3.58-2.55,5.18-1.45l.39.27a3.19,3.19,0,0,1,1.26,2.67A4.79,4.79,0,0,1,46,81.17l-4.59,6.69A3.46,3.46,0,0,1,38.53,89.36Zm5-12.39a2.73,2.73,0,0,0-2,1.08l-4.63,6.72a1.48,1.48,0,0,0-.24,1.14,1.51,1.51,0,0,0,.63,1l.4.27a1.53,1.53,0,0,0,2.13-.4l4.59-6.69a2.94,2.94,0,0,0,.43-1.6,1.38,1.38,0,0,0-.42-1.11L44,77.1A.87.87,0,0,0,43.51,77Z"/><path class="cls-1" d="M19.6,86.09a4,4,0,0,1-4-3.82l-.37-10.06a4.77,4.77,0,0,1,1-3,3.75,3.75,0,0,1,2.8-1.59l.58,0a3.94,3.94,0,0,1,3,1.5,5.29,5.29,0,0,1,1.2,3L24.13,82a4,4,0,0,1-1.06,2.83,3.92,3.92,0,0,1-2.75,1.26l-.57,0Zm.15-16.57h0l-.58,0a1.83,1.83,0,0,0-1.33.82,2.9,2.9,0,0,0-.6,1.78l.36,10.06a2,2,0,0,0,.65,1.41,1.9,1.9,0,0,0,1.46.55l.57,0A2,2,0,0,0,22.2,82l-.33-9.88a3.24,3.24,0,0,0-.76-1.84A1.89,1.89,0,0,0,19.75,69.52Zm-.64-.94h0Z"/><path class="cls-1" d="M26.56,87.28a3.23,3.23,0,0,1-.69-.07l-.52-.1A3.64,3.64,0,0,1,23,85.56a3.7,3.7,0,0,1-.57-2.76L24.07,74c.37-1.94,2.45-4,4.48-3.58h0l.51.1a3.35,3.35,0,0,1,2.33,2,4.77,4.77,0,0,1,.41,2.91l-1.63,8.89A3.7,3.7,0,0,1,26.56,87.28Zm1.47-15A2.68,2.68,0,0,0,26,74.37l-1.64,8.79a1.77,1.77,0,0,0,.28,1.32,1.73,1.73,0,0,0,1.12.74l.51.1a1.77,1.77,0,0,0,2.06-1.4L29.91,75a2.89,2.89,0,0,0-.25-1.72,1.54,1.54,0,0,0-1-.9l-.51-.1Z"/><path class="cls-1" d="M32.47,89.15a3.65,3.65,0,0,1-1.3-.24l-.49-.19A3.69,3.69,0,0,1,28.54,84l3.22-8.39c.71-1.87,3-3.47,5-2.74h0l.49.18a3.92,3.92,0,0,1,2,5l-3.31,8.74a3.72,3.72,0,0,1-3.45,2.38Zm3.22-14.56a2.72,2.72,0,0,0-2.13,1.68l-3.22,8.39a1.76,1.76,0,0,0,1,2.26l.49.19a1.79,1.79,0,0,0,2.27-1l3.31-8.74a2,2,0,0,0-.91-2.52L36,74.65A.93.93,0,0,0,35.69,74.59Z"/><path class="cls-1" d="M10.74,77.7a4.1,4.1,0,0,1-2.86-1.4A6.36,6.36,0,0,1,6.8,68.79l.13-.23a14,14,0,0,1,2.38-3l3.1-3.52c.56-.65,3.69-3.91,4.28-4.43A1,1,0,0,1,18,59.06c-.5.44-3.55,3.61-4.11,4.25C12.5,64.87,11.5,66,10.74,66.85a13,13,0,0,0-2.12,2.63l-.15.26A4.45,4.45,0,0,0,9.26,75c.64.65,1.38,1,1.79.74a6.75,6.75,0,0,0,1.5-1.32c1.51-2-.77-4.57-.8-4.59a1,1,0,0,1,.07-1.36,1,1,0,0,1,1.36.07c1.18,1.3,2.87,4.45.87,7.09A8.7,8.7,0,0,1,12,77.4,2.59,2.59,0,0,1,10.74,77.7Z"/><path class="cls-2" d="M50,19.73a1,1,0,0,1-1-1V11.6a1,1,0,0,1,1.93,0v7.17A1,1,0,0,1,50,19.73Z"/><path class="cls-2" d="M72.39,28.38a1,1,0,0,1-.68-1.65l5.06-5.06A1,1,0,0,1,78.14,23L73.07,28.1A1,1,0,0,1,72.39,28.38Z"/><path class="cls-2" d="M27.87,28.66a.94.94,0,0,1-.68-.28l-5.07-5.06a1,1,0,0,1,0-1.37,1,1,0,0,1,1.36,0L28.55,27a1,1,0,0,1-.68,1.64Z"/><path class="cls-3" d="M30.26,62.37c-7,0-14-1.85-14-5.4V51.42a1,1,0,1,1,1.93,0V57c0,1.41,4.72,3.47,12.12,3.47a30.65,30.65,0,0,0,6.41-.54,1,1,0,0,1,1.13.75,1,1,0,0,1-.74,1.14A33,33,0,0,1,30.26,62.37Z"/><path class="cls-3" d="M30.26,51.41c-7,0-14-1.86-14-5.4,0-4.74,12.63-6.37,20.71-4.81a1,1,0,1,1-.37,1.89,33.6,33.6,0,0,0-6.29-.56c-7.4,0-12.12,2.06-12.12,3.48s4.72,3.47,12.12,3.47a33.07,33.07,0,0,0,6.42-.59,1,1,0,1,1,.38,1.89A35.48,35.48,0,0,1,30.26,51.41Z"/><path class="cls-3" d="M30.26,57c-7,0-14-1.86-14-5.41V46a1,1,0,1,1,1.93,0v5.54C18.14,53,22.86,55,30.26,55a33.49,33.49,0,0,0,6.28-.56,1,1,0,0,1,.37,1.89A35.74,35.74,0,0,1,30.26,57Z"/><path class="cls-3" d="M69.6,62.37a33.6,33.6,0,0,1-6.74-.64,1,1,0,1,1,.39-1.89,31.2,31.2,0,0,0,6.35.6c7.4,0,12.13-2.06,12.13-3.47V51.42a1,1,0,1,1,1.93,0V57C83.66,60.52,76.59,62.37,69.6,62.37Z"/><path class="cls-3" d="M69.6,51.41A35.08,35.08,0,0,1,63,50.82a1,1,0,0,1-.77-1.12,1,1,0,0,1,1.13-.77,33.79,33.79,0,0,0,6.22.55c7.4,0,12.13-2.06,12.13-3.47S77,42.53,69.6,42.53a32.22,32.22,0,0,0-6.33.57,1,1,0,1,1-.38-1.89,33.71,33.71,0,0,1,6.71-.61c7,0,14.06,1.86,14.06,5.41S76.59,51.41,69.6,51.41Z"/><path class="cls-3" d="M69.6,57A36.47,36.47,0,0,1,63,56.37a1,1,0,0,1-.76-1.13,1,1,0,0,1,1.13-.77A33.24,33.24,0,0,0,69.6,55C77,55,81.73,53,81.73,51.55V46a1,1,0,1,1,1.93,0v5.54C83.66,55.1,76.59,57,69.6,57Z"/><path class="cls-3" d="M49.93,59.71c-7,0-14-1.91-14-5.56a1,1,0,0,1,1.93,0c0,1.48,4.72,3.63,12.12,3.63s12.13-2.15,12.13-3.63a1,1,0,0,1,1.92,0C64,57.8,56.92,59.71,49.93,59.71Z"/><path class="cls-3" d="M49.93,65.44c-7,0-14-1.91-14-5.55V54.15a1,1,0,0,1,1.93,0v5.74c0,1.47,4.72,3.62,12.12,3.62s12.13-2.15,12.13-3.62V54.15a1,1,0,0,1,1.92,0v5.74C64,63.53,56.92,65.44,49.93,65.44Z"/><path class="cls-3" d="M49.93,54.11c-7,0-14-1.9-14-5.54a1,1,0,1,1,1.93,0c0,1.47,4.72,3.62,12.12,3.62S62.06,50,62.06,48.57a1,1,0,1,1,1.92,0C64,52.21,56.92,54.11,49.93,54.11Z"/><path class="cls-3" d="M49.93,59.85c-7,0-14-1.91-14-5.55V48.57a1,1,0,1,1,1.93,0V54.3c0,1.48,4.72,3.62,12.12,3.62s12.13-2.14,12.13-3.62V48.57a1,1,0,1,1,1.92,0V54.3C64,57.94,56.92,59.85,49.93,59.85Z"/><path class="cls-3" d="M49.93,48.53c-7,0-14-1.91-14-5.56a1,1,0,0,1,1.93,0c0,1.48,4.72,3.63,12.12,3.63S62.06,44.45,62.06,43A1,1,0,0,1,64,43C64,46.62,56.92,48.53,49.93,48.53Z"/><path class="cls-3" d="M49.93,54.26c-7,0-14-1.91-14-5.55V43a1,1,0,0,1,1.93,0v5.74c0,1.47,4.72,3.62,12.12,3.62s12.13-2.15,12.13-3.62V43A1,1,0,0,1,64,43v5.74C64,52.35,56.92,54.26,49.93,54.26Z"/><path class="cls-3" d="M49.93,42.85c-7,0-14-1.91-14-5.55a1,1,0,0,1,1.93,0c0,1.48,4.72,3.62,12.12,3.62s12.13-2.14,12.13-3.62a1,1,0,1,1,1.92,0C64,40.94,56.92,42.85,49.93,42.85Z"/><path class="cls-3" d="M49.93,48.58c-7,0-14-1.9-14-5.55V37.3a1,1,0,0,1,1.93,0V43c0,1.48,4.72,3.63,12.12,3.63S62.06,44.51,62.06,43V37.3a1,1,0,1,1,1.92,0V43C64,46.68,56.92,48.58,49.93,48.58Z"/><path class="cls-3" d="M49.93,37.26c-7,0-14-1.91-14-5.55s7.07-5.55,14-5.55,14,1.91,14,5.55S56.92,37.26,49.93,37.26Zm0-9.17c-7.4,0-12.12,2.14-12.12,3.62s4.72,3.62,12.12,3.62,12.13-2.14,12.13-3.62S57.33,28.09,49.93,28.09Z"/><path class="cls-3" d="M49.93,43c-7,0-14-1.9-14-5.55V31.71a1,1,0,0,1,1.93,0v5.73c0,1.48,4.72,3.63,12.12,3.63s12.13-2.15,12.13-3.63V31.71a1,1,0,0,1,1.92,0v5.73C64,41.09,56.92,43,49.93,43Z"/></svg>