<svg id="Layer_1" data-name="Layer 1" xmlns="http://www.w3.org/2000/svg" viewBox="0 0 100 100"><defs><style>.cls-1{fill:#20201d;}.cls-2{fill:#174fcc;}</style></defs><path class="cls-1" d="M31.46,20.72H7.06a1,1,0,0,1-1-1V11.89a1,1,0,1,1,1.93,0v6.9H30.49v-6.9a1,1,0,1,1,1.93,0v7.86A1,1,0,0,1,31.46,20.72Z"/><path class="cls-1" d="M47.22,51.22a1,1,0,0,1-.77-1.54L49.24,46,45.47,38a1,1,0,1,1,1.74-.83l4,8.45a.94.94,0,0,1-.1,1L48,50.83A1,1,0,0,1,47.22,51.22Z"/><path class="cls-1" d="M49.84,45.24a.88.88,0,0,1-.45-.11,1,1,0,0,1-.41-1.3l1.94-3.69-3.51-5.32A1,1,0,1,1,49,33.76l3.83,5.8a.94.94,0,0,1,0,1l-2.2,4.2A1,1,0,0,1,49.84,45.24Z"/><path class="cls-1" d="M42.18,62.86a1.83,1.83,0,0,1-1.36-.6c-1.68-1.85-.6-8.51-.09-11.13-.82-1-3.28-4.14-4.36-5.23-4.7-4-11.66-2.43-14.86-.11-1.15.83-1.35,1.45-1.3,1.58,1.72,4.7,2,8.34.8,10.87a5.7,5.7,0,0,1-3.26,3,1,1,0,0,1-.76,0,1,1,0,0,1-.48-.59,46.85,46.85,0,0,0-5.88-11.27C3,39.24,8.5,20.43,8.73,19.63a1,1,0,1,1,1.85.55c-.05.18-5.42,18.68,1.54,27.92A50.75,50.75,0,0,1,18,59a3.78,3.78,0,0,0,1.26-1.54c.95-2,.66-5.25-.85-9.35-.48-1.17.23-2.59,2-3.84,3.69-2.68,11.75-4.45,17.29.26,1.45,1.44,4.72,5.63,4.86,5.8a1,1,0,0,1,.18.79c-.85,4.15-1.1,8.41-.63,9.61A35.8,35.8,0,0,0,46.73,52c-.88-2.61-4-11.35-4-11.35L44.56,40c.14.38,3.37,9.46,4.1,11.65a1,1,0,0,1,0,.49c-.24,1.2-3.17,7.9-5.72,10.46a1,1,0,0,1-.58.27Z"/><path class="cls-1" d="M51.52,39.9l-.19,0a1,1,0,0,1-.76-1.12l1.13-5.94-7.27-4.16-1.5-.7c-.31-.09-10.5-3.32-14.22-7.46a1,1,0,0,1,1.44-1.29c3.37,3.76,13.38,6.93,13.48,7l1.69.78,7.93,4.54a1,1,0,0,1,.47,1l-1.26,6.61A1,1,0,0,1,51.52,39.9Z"/><path class="cls-2" d="M30,74.73A10.39,10.39,0,1,1,40.38,64.35,10.4,10.4,0,0,1,30,74.73Zm0-18.84a8.46,8.46,0,1,0,8.46,8.46A8.46,8.46,0,0,0,30,55.89Z"/><path class="cls-2" d="M68.87,54a1,1,0,0,1-1-1V32.76a1,1,0,1,1,1.92,0v20.3A1,1,0,0,1,68.87,54Z"/><path class="cls-2" d="M61.7,48.06a1,1,0,0,1-1-1V45.9a1,1,0,0,1,1.93,0v1.19A1,1,0,0,1,61.7,48.06Z"/><path class="cls-2" d="M61.7,42.09a1,1,0,0,1-1-1V33.73H56.93a1,1,0,0,1-.88-.57,1,1,0,0,1,.15-1l8.36-9.56a1,1,0,0,1,1.45,0l8.36,9.56a1,1,0,0,1,.15,1,1,1,0,0,1-.87.57h-6a1,1,0,0,1,0-1.93h3.85l-6.23-7.13L59.05,31.8H61.7a1,1,0,0,1,1,1v8.36A1,1,0,0,1,61.7,42.09Z"/><path class="cls-2" d="M88,60a1,1,0,0,1-1-1V23.21a1,1,0,1,1,1.93,0V59A1,1,0,0,1,88,60Z"/><path class="cls-2" d="M80.81,44.47a1,1,0,0,1-1-1V42.32a1,1,0,1,1,1.93,0v1.19A1,1,0,0,1,80.81,44.47Z"/><path class="cls-2" d="M80.81,50.45a1,1,0,0,1-1-1V48.29a1,1,0,1,1,1.93,0v1.19A1,1,0,0,1,80.81,50.45Z"/><path class="cls-2" d="M80.81,38.5a1,1,0,0,1-1-1V36.35a1,1,0,1,1,1.93,0v1.19A1,1,0,0,1,80.81,38.5Z"/><path class="cls-2" d="M80.81,32.53a1,1,0,0,1-1-1v-7.4H76a1,1,0,0,1-.72-1.6L83.67,13a1,1,0,0,1,1.45,0l8.36,9.55a1,1,0,0,1-.73,1.6h-6a1,1,0,0,1,0-1.93h3.85l-6.24-7.12-6.23,7.12h2.65a1,1,0,0,1,1,1v8.36A1,1,0,0,1,80.81,32.53Z"/><path class="cls-2" d="M81.56,88.89c-6.14,0-12.35-1.66-12.35-4.85a1,1,0,1,1,1.93,0c0,1,3.67,2.93,10.42,2.93S92,85,92,84a1,1,0,1,1,1.93,0C93.9,87.23,87.69,88.89,81.56,88.89Z"/><path class="cls-2" d="M81.56,84.15c-6.14,0-12.35-1.67-12.35-4.86a1,1,0,0,1,1.93,0c0,1,3.67,2.93,10.42,2.93S92,80.29,92,79.29a1,1,0,0,1,1.93,0C93.9,82.48,87.69,84.15,81.56,84.15Z"/><path class="cls-2" d="M81.56,89c-6.14,0-12.35-1.67-12.35-4.86V79.29a1,1,0,0,1,1.93,0v4.87c0,1,3.67,2.93,10.42,2.93S92,85.15,92,84.16V79.29a1,1,0,0,1,1.93,0v4.87C93.9,87.35,87.69,89,81.56,89Z"/><path class="cls-2" d="M81.56,79.33c-6.14,0-12.35-1.67-12.35-4.85a1,1,0,1,1,1.93,0c0,1,3.67,2.92,10.42,2.92S92,75.47,92,74.48a1,1,0,1,1,1.93,0C93.9,77.66,87.69,79.33,81.56,79.33Z"/><path class="cls-2" d="M81.56,84.2c-6.14,0-12.35-1.67-12.35-4.86V74.48a1,1,0,1,1,1.93,0v4.86c0,1,3.67,2.93,10.42,2.93S92,80.34,92,79.34V74.48a1,1,0,1,1,1.93,0v4.86C93.9,82.53,87.69,84.2,81.56,84.2Z"/><path class="cls-2" d="M81.56,74.59c-6.14,0-12.35-1.67-12.35-4.86,0-6.38,24.69-6.38,24.69,0C93.9,72.92,87.69,74.59,81.56,74.59Zm0-7.79c-6.75,0-10.42,1.94-10.42,2.93s3.67,2.93,10.42,2.93S92,70.72,92,69.73,88.3,66.8,81.56,66.8Z"/><path class="cls-2" d="M81.56,79.45c-6.14,0-12.35-1.66-12.35-4.85V69.73a1,1,0,0,1,1.93,0V74.6c0,1,3.67,2.93,10.42,2.93S92,75.59,92,74.6V69.73a1,1,0,0,1,1.93,0V74.6C93.9,77.79,87.69,79.45,81.56,79.45Z"/><path class="cls-2" d="M58.79,89c-6.13,0-12.34-1.67-12.34-4.86a1,1,0,0,1,1.93,0c0,1,3.67,2.93,10.41,2.93s10.42-1.94,10.42-2.93a1,1,0,0,1,1.93,0C71.14,87.29,64.93,89,58.79,89Z"/><path class="cls-2" d="M58.79,84.21c-6.13,0-12.34-1.67-12.34-4.86,0-6.37,24.69-6.37,24.69,0C71.14,82.54,64.93,84.21,58.79,84.21Zm0-7.79c-6.74,0-10.41,1.94-10.41,2.93s3.67,2.93,10.41,2.93,10.42-1.93,10.42-2.93S65.53,76.42,58.79,76.42Z"/><path class="cls-2" d="M58.79,89.08c-6.13,0-12.34-1.67-12.34-4.86V79.35a1,1,0,0,1,1.93,0v4.87c0,1,3.67,2.93,10.41,2.93s10.42-1.94,10.42-2.93V79.35a1,1,0,0,1,1.93,0v4.87C71.14,87.41,64.93,89.08,58.79,89.08Z"/></svg>