<svg id="Layer_1" data-name="Layer 1" xmlns="http://www.w3.org/2000/svg" viewBox="0 0 100 100"><defs><style>.cls-1{fill:#dd5d4f;}.cls-2{fill:#20201d;}</style></defs><path class="cls-1" d="M50.29,43.77a1.22,1.22,0,0,1-.93-.43l-7.49-8.68-7.54,6.53a1.23,1.23,0,0,1-1.61-1.86L41.2,32a1.2,1.2,0,0,1,.89-.3,1.25,1.25,0,0,1,.84.43l7.49,8.68L72.91,21.69a1.24,1.24,0,0,1,1.73.14,1.22,1.22,0,0,1-.14,1.73L51.08,43.47A1.2,1.2,0,0,1,50.29,43.77Z"/><path class="cls-1" d="M26.75,47.25a1.19,1.19,0,0,1-.93-.43A1.22,1.22,0,0,1,26,45.09l2.28-2A1.23,1.23,0,1,1,29.83,45l-2.28,2A1.23,1.23,0,0,1,26.75,47.25Z"/><path class="cls-1" d="M14.45,44.84a1.2,1.2,0,0,1-.93-.43,1.22,1.22,0,0,1,.14-1.73L42.19,18.55a1.23,1.23,0,0,1,1.73.14l7.5,8.74L65.75,15.28l-3.34-3.87a1.23,1.23,0,0,1,.93-2h0l16.88.12a1.22,1.22,0,0,1,1.2,1.4L79.07,27.61a1.24,1.24,0,0,1-.87,1,1.26,1.26,0,0,1-1.28-.38l-5.18-6a1.23,1.23,0,0,1,1.86-1.61l3.42,4L78.81,12,66,11.85l2.38,2.76a1.23,1.23,0,0,1,.29.9,1.19,1.19,0,0,1-.43.84L52.08,30.09A1.24,1.24,0,0,1,50.35,30l-7.5-8.74L15.25,44.55A1.23,1.23,0,0,1,14.45,44.84Z"/><path class="cls-2" d="M30.23,90.62H15A1.22,1.22,0,0,1,13.8,89.4V69.63A1.23,1.23,0,0,1,15,68.4H30.23a1.23,1.23,0,0,1,1.23,1.23V89.4A1.23,1.23,0,0,1,30.23,90.62Zm-14-2.45H29V70.85H16.25Z"/><path class="cls-2" d="M57.6,90.62H42.4a1.23,1.23,0,0,1-1.23-1.22V60.5a1.22,1.22,0,0,1,1.23-1.22H57.6a1.22,1.22,0,0,1,1.23,1.22V89.4A1.23,1.23,0,0,1,57.6,90.62Zm-14-2.45H56.38V61.73H43.62Z"/><path class="cls-2" d="M85,90.62H69.77a1.23,1.23,0,0,1-1.23-1.22V40.73a1.22,1.22,0,0,1,1.23-1.22H85a1.22,1.22,0,0,1,1.22,1.22V89.4A1.22,1.22,0,0,1,85,90.62ZM71,88.17H83.75V42H71Z"/><path class="cls-2" d="M88,90.62H12a1.23,1.23,0,0,1,0-2.45H88a1.23,1.23,0,0,1,0,2.45Z"/></svg>