<svg id="Layer_1" data-name="Layer 1" xmlns="http://www.w3.org/2000/svg" viewBox="0 0 100 100"><defs><style>.cls-1{fill:#20201d;}.cls-2{fill:#2ecc71;}</style></defs><path class="cls-1" d="M79.25,70.62a1,1,0,0,1-.64-.24,1,1,0,0,1-.33-.73V22.86a1,1,0,0,1,.84-1c11.31-1.51,12-3.26,12-3.28-.6-1.71-14.86-4.86-41.16-4.86S9.45,16.91,8.84,18.68h0s.86,1.72,12,3.22a1,1,0,0,1,.84,1V69.65a1,1,0,0,1-.33.73,1,1,0,0,1-.76.23C8.48,69,6.92,67,6.92,65.44c0-1.73,2.39-2.69,4.18-3.25A1,1,0,1,1,11.68,64c-2.56.82-2.83,1.43-2.84,1.45h0s.8,1.61,11,3.08V23.7C8.41,22.09,6.92,20.16,6.92,18.65c0-6.74,42.65-6.81,43.08-6.81s43.08.07,43.08,6.81c0,1.51-1.49,3.44-12.87,5.05V68.55c10.06-1.45,10.91-3,10.94-3.13h0s-.34-.6-2.84-1.4a1,1,0,0,1,.59-1.84c1.79.57,4.18,1.53,4.18,3.26,0,1.55-1.56,3.54-13.71,5.17Z"/><path class="cls-1" d="M82.76,62.73h-.17a194.71,194.71,0,0,0-28.18-2.13,1,1,0,1,1,0-1.93,195.91,195.91,0,0,1,28.48,2.16,1,1,0,0,1-.16,1.91Z"/><path class="cls-1" d="M17.24,62.73a1,1,0,0,1-.16-1.91,196.25,196.25,0,0,1,28.61-2.16.91.91,0,0,1,1,1,1,1,0,0,1-1,1A195.32,195.32,0,0,0,17.4,62.72Z"/><path class="cls-1" d="M92.12,66.41a1,1,0,0,1-1-1V18.65a1,1,0,0,1,1.93,0V65.44A1,1,0,0,1,92.12,66.41Z"/><path class="cls-1" d="M7.88,67a1,1,0,0,1-1-1V19.23a1,1,0,0,1,1.93,0V66A1,1,0,0,1,7.88,67Z"/><path class="cls-2" d="M53.65,43.71a1,1,0,0,1-1-1V39H47.59v3.72a1,1,0,0,1-1.93,0V38.07a1,1,0,0,1,1-1h7a1,1,0,0,1,1,1v4.68A1,1,0,0,1,53.65,43.71Z"/><path class="cls-2" d="M67.69,54.24h-7a1,1,0,0,1-1-1V32.22a1,1,0,0,1,1-1h7a1,1,0,0,1,1,1V53.27A1,1,0,0,1,67.69,54.24Zm-6.06-1.93h5.09V33.18H61.63Z"/><path class="cls-2" d="M39.61,54.24h-7a1,1,0,0,1-1-1V42.75a1,1,0,0,1,1-1h7a1,1,0,0,1,1,1V53.27A1,1,0,0,1,39.61,54.24Zm-6-1.93h5.09v-8.6H33.56Z"/><path class="cls-2" d="M25.57,42.54a1,1,0,0,1-.72-1.61l10.53-11.7a1,1,0,0,1,.8-.31l13.68,1.14L63.6,19.75a1,1,0,0,1,1-.09L74,24.34a1,1,0,1,1-.87,1.72l-8.82-4.41L50.72,31.82a1,1,0,0,1-.66.19L36.5,30.88,26.29,42.22A1,1,0,0,1,25.57,42.54Z"/><path class="cls-1" d="M67.48,87.2H65.55V77.84c0-6.34-4.58-10.77-11.14-10.77H45.87c-6.56,0-11.15,4.43-11.15,10.77V87.2H32.8V77.84c0-7.36,5.49-12.7,13.07-12.7h8.54c7.57,0,13.07,5.34,13.07,12.7Z"/><path class="cls-1" d="M50.17,62.11c-4.28,0-7.16-3.38-7.16-8.41s2.88-8.41,7.16-8.41,7.16,3.38,7.16,8.41S54.45,62.11,50.17,62.11Zm0-14.89c-3.85,0-5.23,3.35-5.23,6.48s1.38,6.48,5.23,6.48,5.23-3.35,5.23-6.48S54,47.22,50.17,47.22Z"/><path class="cls-1" d="M59.58,88.09H40.31V84.65l-1-8a2.53,2.53,0,0,1,2.51-2.85H58.07a2.53,2.53,0,0,1,2.51,2.85l-1,8.16ZM42.23,86.16H57.65V84.65l1-8.28a.64.64,0,0,0-.14-.48.6.6,0,0,0-.46-.21H41.81a.56.56,0,0,0-.45.21.6.6,0,0,0-.15.48l1,8.16Z"/><path class="cls-1" d="M68.86,88.16H31.42a1,1,0,1,1,0-1.92H68.86a1,1,0,1,1,0,1.92Z"/></svg>