<?xml version="1.0" encoding="utf-8"?>
<!-- Generator: Adobe Illustrator 24.3.0, SVG Export Plug-In . SVG Version: 6.00 Build 0)  -->
<svg version="1.1" id="Layer_1" xmlns="http://www.w3.org/2000/svg" xmlns:xlink="http://www.w3.org/1999/xlink" x="0px" y="0px"
	 viewBox="0 0 427.63 377.43" style="enable-background:new 0 0 427.63 377.43;" xml:space="preserve">
<style type="text/css">
	.st0{fill:#FFFFFF;}
	.st1{fill-rule:evenodd;clip-rule:evenodd;fill:#FFFFFF;}
</style>
<g>
	<g>
		<path class="st0" d="M139.88,62.88l-4.46,2.81c-47.89,21.4-81.35,70.58-81.35,126.28c0,69.41,51.96,126.92,119.07,135.81l3.77,3.8
			c-68.03-9.03-124.75-64.56-124.75-139.62C52.17,133.49,88.54,83.34,139.88,62.88z"/>
		<path class="st1" d="M135.61,319.89c0,0-6.18-3.93-17.88-4.16c-4.08-0.09-13.73,2.09-13.97,3.35c-0.4,2.09,10.11,5.36,13.7,5.46
			C133.52,324.99,135.61,319.89,135.61,319.89z"/>
		<path class="st1" d="M115.54,277.8c0,0,6.47,5.52,11.32,18.82c1.69,4.64,3.25,16.53,2.05,17.3c-1.99,1.28-9.49-9.45-11.02-13.52
			C111.12,282.2,115.54,277.8,115.54,277.8z"/>
		<path class="st1" d="M110.51,306.11c0,0-5.78-6.32-18.76-10.27c-4.53-1.38-15.9-1.99-16.52-0.67c-1.04,2.21,9.75,9.16,13.73,10.41
			C106.74,311.14,110.51,306.11,110.51,306.11z"/>
		<path class="st1" d="M96.85,257.56c0,0,4.89,7.1,6.32,21.27c0.5,4.94-0.92,16.86-2.26,17.27c-2.24,0.7-6.85-11.72-7.32-16.07
			C91.49,260.59,96.85,257.56,96.85,257.56z"/>
		<path class="st1" d="M84.5,283.37c0,0-4.03-7.68-15.6-15.04c-4.03-2.57-14.87-6.26-15.8-5.15c-1.55,1.85,7.17,11.51,10.7,13.8
			C79.62,287.2,84.5,283.37,84.5,283.37z"/>
		<path class="st1" d="M83.75,232.9c0,0,2.99,8.19,0.88,22.27c-0.73,4.91-5.02,16.03-6.42,16.07c-2.34,0.06-3.74-13.19-3.13-17.52
			C77.84,234.37,83.75,232.9,83.75,232.9z"/>
		<path class="st1" d="M65.49,254.47c0,0-2-8.52-11.37-18.79c-3.27-3.58-12.82-10.11-13.99-9.29c-1.95,1.36,4.1,13.07,6.95,16.25
			C59.84,256.83,65.49,254.47,65.49,254.47z"/>
		<path class="st1" d="M77.16,205.51c0,0,0.87,8.73-4.61,21.75c-1.91,4.54-8.79,14.11-10.15,13.77c-2.27-0.58-0.37-13.76,1.28-17.78
			C71.08,205.31,77.16,205.51,77.16,205.51z"/>
		<path class="st1" d="M54.23,221.36c0,0,0.16-8.78-6.37-21.25c-2.28-4.35-9.91-13.26-11.24-12.79c-2.22,0.78,0.75,13.75,2.73,17.59
			C48.19,222.1,54.23,221.36,54.23,221.36z"/>
		<path class="st1" d="M77.52,177.25c0,0-1.3,8.67-9.8,19.75c-2.96,3.87-11.95,11.23-13.18,10.53c-2.05-1.18,3.02-13.4,5.6-16.82
			C71.69,175.41,77.52,177.25,77.52,177.25z"/>
		<path class="st1" d="M51.47,186.3c0,0,2.3-8.43-0.94-22.26c-1.13-4.82-6.31-15.52-7.71-15.42c-2.33,0.15-2.65,13.48-1.68,17.74
			C45.46,185.37,51.47,186.3,51.47,186.3z"/>
		<path class="st1" d="M84.79,150.05c0,0-3.38,8.02-14.31,16.4c-3.81,2.93-14.3,7.59-15.32,6.57c-1.69-1.7,6.2-12.12,9.54-14.72
			C79.62,146.68,84.79,150.05,84.79,150.05z"/>
		<path class="st1" d="M57.42,151.69c0,0,4.3-7.52,4.56-21.76c0.09-4.97-2.29-16.71-3.67-17c-2.29-0.49-5.87,12.3-5.98,16.67
			C51.83,149.15,57.42,151.69,57.42,151.69z"/>
		<path class="st1" d="M98.5,125.77c0,0-5.24,6.82-17.85,11.94c-4.4,1.79-15.68,3.43-16.41,2.17c-1.22-2.1,8.96-10.01,12.82-11.62
			C94.33,121.1,98.5,125.77,98.5,125.77z"/>
		<path class="st1" d="M71.66,119.88c0,0,6-6.09,9.74-19.78c1.31-4.77,1.89-16.77,0.63-17.42c-2.09-1.1-8.69,10.28-9.87,14.47
			C66.89,115.9,71.66,119.88,71.66,119.88z"/>
		<path class="st1" d="M112.77,104.06c0,0-5.59,5.44-17.62,8.31c-4.2,1-14.6,0.92-15.1-0.33c-0.84-2.07,9.35-7.8,13.04-8.71
			C109.59,99.26,112.77,104.06,112.77,104.06z"/>
		<path class="st1" d="M93.22,93.03c0,0,7.29-4.25,14.26-16.44c2.44-4.25,5.94-15.68,4.89-16.66c-1.75-1.63-10.91,7.56-13.09,11.29
			C89.59,87.89,93.22,93.03,93.22,93.03z"/>
		<path class="st1" d="M131.31,87.03c0,0-6.09,4.51-18.13,5.65c-4.2,0.4-14.28-1.11-14.62-2.38c-0.56-2.12,10.04-6.29,13.73-6.67
			C128.81,81.94,131.31,87.03,131.31,87.03z"/>
		<path class="st1" d="M120.63,72.99c0,0,8.08-2.11,17.81-11.99c3.4-3.44,9.59-13.52,8.81-14.76c-1.29-2.05-12.4,4.32-15.41,7.33
			C118.39,67.03,120.63,72.99,120.63,72.99z"/>
		<path class="st1" d="M158.14,70.36c0,0-6.24,3.87-17.99,3.98c-4.1,0.04-13.76-2.25-13.99-3.51c-0.38-2.1,10.2-5.27,13.81-5.34
			C156.1,65.21,158.14,70.36,158.14,70.36z"/>
		<path class="st1" d="M147.33,62.88c0,0,7.31,0.14,17.7-5.9c3.62-2.11,11.05-9.18,10.66-10.41c-0.65-2.05-11.45,0.7-14.66,2.53
			C146.71,57.29,147.33,62.88,147.33,62.88z"/>
		<path class="st0" d="M287.75,62.88l4.46,2.81c47.89,21.4,81.35,70.58,81.35,126.28c0,69.41-51.96,126.92-119.07,135.81l-3.77,3.8
			c68.03-9.03,124.75-64.56,124.75-139.62C375.47,133.49,339.09,83.34,287.75,62.88z"/>
		<path class="st1" d="M292.02,319.89c0,0,6.18-3.93,17.88-4.16c4.08-0.09,13.73,2.09,13.97,3.35c0.4,2.09-10.11,5.36-13.7,5.46
			C294.11,324.99,292.02,319.89,292.02,319.89z"/>
		<path class="st1" d="M312.09,277.8c0,0-6.47,5.52-11.32,18.82c-1.69,4.64-3.25,16.53-2.05,17.3c1.99,1.28,9.49-9.45,11.02-13.52
			C316.52,282.2,312.09,277.8,312.09,277.8z"/>
		<path class="st1" d="M317.12,306.11c0,0,5.77-6.32,18.76-10.27c4.53-1.38,15.9-1.99,16.52-0.67c1.04,2.21-9.75,9.16-13.73,10.41
			C320.9,311.14,317.12,306.11,317.12,306.11z"/>
		<path class="st1" d="M330.79,257.56c0,0-4.89,7.1-6.32,21.27c-0.5,4.94,0.92,16.86,2.26,17.27c2.24,0.7,6.85-11.72,7.32-16.07
			C336.14,260.59,330.79,257.56,330.79,257.56z"/>
		<path class="st1" d="M342.28,283.37c0,0,4.03-7.68,15.6-15.04c4.03-2.57,14.87-6.26,15.8-5.15c1.55,1.85-7.17,11.51-10.7,13.8
			C347.15,287.2,342.28,283.37,342.28,283.37z"/>
		<path class="st1" d="M343.88,232.9c0,0-2.99,8.19-0.88,22.27c0.73,4.91,5.02,16.03,6.42,16.07c2.34,0.06,3.74-13.19,3.13-17.52
			C349.8,234.37,343.88,232.9,343.88,232.9z"/>
		<path class="st1" d="M362.14,254.47c0,0,2-8.52,11.37-18.79c3.27-3.58,12.83-10.11,13.99-9.29c1.95,1.36-4.1,13.07-6.95,16.25
			C367.79,256.83,362.14,254.47,362.14,254.47z"/>
		<path class="st1" d="M350.47,205.51c0,0-0.87,8.73,4.61,21.75c1.91,4.54,8.79,14.11,10.15,13.77c2.27-0.58,0.37-13.76-1.28-17.78
			C356.55,205.31,350.47,205.51,350.47,205.51z"/>
		<path class="st1" d="M373.41,221.36c0,0-0.16-8.78,6.37-21.25c2.28-4.35,9.91-13.26,11.24-12.79c2.22,0.78-0.75,13.75-2.73,17.59
			C379.45,222.1,373.41,221.36,373.41,221.36z"/>
		<path class="st1" d="M350.12,177.25c0,0,1.3,8.67,9.79,19.75c2.96,3.87,11.95,11.23,13.18,10.53c2.05-1.18-3.02-13.4-5.6-16.82
			C355.94,175.41,350.12,177.25,350.12,177.25z"/>
		<path class="st1" d="M376.16,186.3c0,0-2.3-8.43,0.94-22.26c1.13-4.82,6.31-15.52,7.71-15.42c2.33,0.15,2.65,13.48,1.68,17.74
			C382.18,185.37,376.16,186.3,376.16,186.3z"/>
		<path class="st1" d="M342.84,150.05c0,0,3.38,8.02,14.31,16.4c3.81,2.93,14.3,7.59,15.32,6.57c1.69-1.7-6.2-12.12-9.54-14.72
			C348.01,146.68,342.84,150.05,342.84,150.05z"/>
		<path class="st1" d="M370.22,151.69c0,0-4.3-7.52-4.56-21.76c-0.09-4.97,2.29-16.71,3.67-17c2.29-0.49,5.87,12.3,5.98,16.67
			C375.8,149.15,370.22,151.69,370.22,151.69z"/>
		<path class="st1" d="M329.13,125.77c0,0,5.24,6.82,17.85,11.94c4.4,1.79,15.68,3.43,16.41,2.17c1.22-2.1-8.96-10.01-12.82-11.62
			C333.3,121.1,329.13,125.77,329.13,125.77z"/>
		<path class="st1" d="M355.98,119.88c0,0-6-6.09-9.74-19.78c-1.31-4.77-1.89-16.77-0.63-17.42c2.09-1.1,8.69,10.28,9.87,14.47
			C360.75,115.9,355.98,119.88,355.98,119.88z"/>
		<path class="st1" d="M314.86,104.06c0,0,5.59,5.44,17.62,8.31c4.2,1,14.6,0.92,15.1-0.33c0.84-2.07-9.35-7.8-13.04-8.71
			C318.05,99.26,314.86,104.06,314.86,104.06z"/>
		<path class="st1" d="M334.42,93.03c0,0-7.29-4.25-14.26-16.44c-2.44-4.25-5.94-15.68-4.89-16.66c1.75-1.63,10.91,7.56,13.09,11.29
			C338.05,87.89,334.42,93.03,334.42,93.03z"/>
		<path class="st1" d="M296.32,87.03c0,0,6.09,4.51,18.13,5.65c4.2,0.4,14.28-1.11,14.62-2.38c0.56-2.12-10.04-6.29-13.73-6.67
			C298.82,81.94,296.32,87.03,296.32,87.03z"/>
		<path class="st1" d="M307,72.99c0,0-8.08-2.11-17.81-11.99c-3.4-3.44-9.59-13.52-8.81-14.76c1.29-2.05,12.4,4.32,15.41,7.33
			C309.25,67.03,307,72.99,307,72.99z"/>
		<path class="st1" d="M269.49,70.36c0,0,6.24,3.87,17.99,3.98c4.1,0.04,13.76-2.25,13.99-3.51c0.38-2.1-10.2-5.27-13.81-5.34
			C271.54,65.21,269.49,70.36,269.49,70.36z"/>
		<path class="st1" d="M280.31,62.88c0,0-7.31,0.14-17.7-5.9c-3.62-2.11-11.05-9.18-10.66-10.41c0.65-2.05,11.45,0.7,14.66,2.53
			C280.93,57.29,280.31,62.88,280.31,62.88z"/>
	</g>
	<g>
		<g>
			<path class="st0" d="M198.4,121.83c0,2.53-2.52,4.55-5.62,4.55h-7.6v-15.77h7.39c3.08,0,5.37,1.73,5.37,4.05
				c0,1.35-0.76,2.62-2.01,3.4C197.51,118.79,198.4,120.16,198.4,121.83z M192.2,113.52h-3.22v3.36h3.22c1.22,0,1.99-0.7,1.99-1.68
				C194.19,114.21,193.42,113.52,192.2,113.52z M194.52,121.47c0-1.01-0.84-1.76-2.11-1.76h-3.43v3.54h3.43
				C193.68,123.25,194.52,122.51,194.52,121.47z"/>
			<path class="st0" d="M212.58,123.2v3.17h-11.01v-15.77h10.73v3.15h-6.86v3.11h6.2v3.09h-6.2v3.24H212.58z"/>
			<path class="st0" d="M214.84,121.27h3.9c0,1.52,1.43,2.26,3.01,2.26c1.46,0,2.88-0.68,2.88-1.85c0-1.22-1.63-1.56-3.57-1.96
				c-2.69-0.59-5.97-1.28-5.97-4.67c0-3.02,2.53-4.73,6.48-4.73c4.11,0,6.44,1.94,6.44,5.08h-3.82c0-1.36-1.27-1.99-2.71-1.99
				c-1.25,0-2.52,0.47-2.52,1.5c0,1.11,1.55,1.45,3.44,1.84c2.72,0.61,6.15,1.36,6.15,4.89c0,3.41-3.08,5.06-6.77,5.06
				C217.66,126.69,214.84,124.66,214.84,121.27z"/>
			<path class="st0" d="M243.95,113.78h-4.97v12.6h-3.87v-12.6h-4.97v-3.17h13.8V113.78z"/>
			<path class="st0" d="M169.92,140.81h-4.97v12.6h-3.87v-12.6h-4.97v-3.17h13.8V140.81z"/>
			<path class="st0" d="M178.85,148.03h-2.48v5.38h-3.87v-15.77h7.21c3.58,0,6.25,2.17,6.25,5.21c0,2.06-1.28,3.75-3.26,4.59
				l3.95,5.96h-4.32L178.85,148.03z M176.37,144.88h3.09c1.62,0,2.58-0.86,2.58-2.04c0-1.18-0.96-2.04-2.58-2.04h-3.09V144.88z"/>
			<path class="st0" d="M199.99,150.42h-7.11l-1.23,2.99h-4.1l7-15.77h3.65l7.23,15.77h-4.2L199.99,150.42z M194.09,147.45h4.69
				l-2.36-5.64L194.09,147.45z"/>
			<path class="st0" d="M223.53,145.51c0,4.57-3.82,7.9-9.06,7.9h-6.76v-15.77h6.76C219.72,137.65,223.53,140.96,223.53,145.51z
				 M219.57,145.51c0-2.77-2.13-4.7-5.2-4.7h-2.8v9.43h2.8C217.44,150.25,219.57,148.27,219.57,145.51z"/>
			<path class="st0" d="M226.62,137.65h3.87v15.77h-3.87V137.65z"/>
			<path class="st0" d="M249.7,137.65v15.77h-3.23l-8.09-9.85v9.85h-3.79v-15.77h3.49l7.83,9.62v-9.62H249.7z"/>
			<path class="st0" d="M271.13,145.18c-0.02,4.94-3.76,8.58-9.13,8.58c-5.26,0-9.25-3.48-9.25-8.21c0-4.72,3.89-8.24,9.18-8.24
				c4.44,0,8.13,2.48,8.96,6h-3.98c-0.77-1.69-2.66-2.75-4.9-2.75c-3.17,0-5.34,2.04-5.34,4.99c0,2.92,2.12,4.95,5.34,4.95
				c2.31,0,4.31-1.08,4.97-2.7h-5.36v-2.62H271.13z"/>
			<path class="st0" d="M132.01,172.58c0-4.69,3.98-8.24,9.23-8.24c4.35,0,7.82,2.54,8.65,6.28h-3.88
				c-0.73-1.86-2.52-3.02-4.77-3.02c-3.02,0-5.31,2.15-5.31,4.99s2.29,4.95,5.31,4.95c2.35,0,4.16-1.25,4.81-3.25h3.9
				c-0.81,3.9-4.28,6.5-8.7,6.5C135.99,180.78,132.01,177.23,132.01,172.58z"/>
			<path class="st0" d="M151.67,172.56c0-4.68,4.08-8.23,9.54-8.23c5.43,0,9.49,3.53,9.49,8.23s-4.06,8.23-9.49,8.23
				C155.75,180.79,151.67,177.24,151.67,172.56z M166.78,172.56c0-2.86-2.39-5.01-5.58-5.01c-3.18,0-5.62,2.17-5.62,5.01
				s2.43,5.01,5.62,5.01C164.39,177.57,166.78,175.42,166.78,172.56z"/>
			<path class="st0" d="M188.85,164.68v15.77h-3.23l-8.09-9.85v9.85h-3.79v-15.77h3.49l7.83,9.62v-9.62H188.85z"/>
			<path class="st0" d="M208.75,172.54c0,4.57-3.82,7.9-9.06,7.9h-6.76v-15.77h6.76C204.95,164.68,208.75,167.99,208.75,172.54z
				 M204.79,172.54c0-2.77-2.13-4.7-5.2-4.7h-2.8v9.43h2.8C202.66,177.28,204.79,175.3,204.79,172.54z"/>
			<path class="st0" d="M211.84,164.68h3.87v15.77h-3.87V164.68z"/>
			<path class="st0" d="M232.12,167.84h-4.97v12.6h-3.87v-12.6h-4.97v-3.17h13.8V167.84z"/>
			<path class="st0" d="M234.71,164.68h3.87v15.77h-3.87V164.68z"/>
			<path class="st0" d="M241.62,172.56c0-4.68,4.08-8.23,9.54-8.23c5.43,0,9.49,3.53,9.49,8.23s-4.06,8.23-9.49,8.23
				C245.7,180.79,241.62,177.24,241.62,172.56z M256.73,172.56c0-2.86-2.39-5.01-5.58-5.01c-3.18,0-5.62,2.17-5.62,5.01
				s2.43,5.01,5.62,5.01C254.34,177.57,256.73,175.42,256.73,172.56z"/>
			<path class="st0" d="M278.8,164.68v15.77h-3.23l-8.09-9.85v9.85h-3.79v-15.77h3.49l7.83,9.62v-9.62H278.8z"/>
			<path class="st0" d="M281.88,175.33h3.9c0,1.52,1.43,2.26,3.01,2.26c1.46,0,2.88-0.68,2.88-1.85c0-1.22-1.63-1.56-3.57-1.96
				c-2.69-0.59-5.97-1.28-5.97-4.67c0-3.02,2.53-4.73,6.48-4.73c4.11,0,6.44,1.94,6.44,5.08h-3.82c0-1.36-1.27-1.99-2.71-1.99
				c-1.25,0-2.52,0.47-2.52,1.5c0,1.11,1.55,1.45,3.44,1.84c2.72,0.61,6.15,1.36,6.15,4.89c0,3.41-3.08,5.06-6.77,5.06
				C284.7,180.76,281.88,178.72,281.88,175.33z"/>
		</g>
	</g>
	<g>
		<path class="st0" d="M153.24,226.05v4.23h6.36v2.25h-6.36v6.16h-2.78v-14.94h9.76v2.3H153.24z"/>
		<path class="st0" d="M162.04,232.93c0-3.49,2.99-6.04,6.98-6.04c3.99,0,6.98,2.57,6.98,6.04c0,3.46-3,6.04-6.98,6.04
			C165.03,238.97,162.04,236.39,162.04,232.93z M173.27,232.93c0-2.21-1.78-3.78-4.25-3.78c-2.47,0-4.25,1.58-4.25,3.78
			c0,2.21,1.78,3.78,4.25,3.78C171.49,236.71,173.27,235.14,173.27,232.93z"/>
		<path class="st0" d="M186.29,227.1v2.24h-1.42c-2.22,0-3.33,1.12-3.33,3.21v6.15h-2.68v-11.53h1.82l0.45,1.57
			c0.93-1.09,2.22-1.64,4-1.64H186.29z"/>
		<path class="st0" d="M200.8,232.96c0,0.26-0.02,0.52-0.05,0.78h-10.6c0.34,1.87,1.86,3.02,4,3.02c1.56,0,2.82-0.64,3.51-1.69h2.83
			c-1.04,2.43-3.42,3.91-6.34,3.91c-3.82,0-6.71-2.6-6.71-6.04c0-3.45,2.88-6.04,6.71-6.04C198.14,226.89,200.8,229.6,200.8,232.96
			L200.8,232.96z M194.14,229.02c-2.02,0-3.49,1.08-3.93,2.79h7.9C197.63,230.06,196.13,229.03,194.14,229.02L194.14,229.02z"/>
		<path class="st0" d="M211.36,238.69l-3.25-4.39l-3.29,4.39h-2.95l4.64-5.96l-4.29-5.57h3.02l2.88,3.88l2.98-3.88h2.95l-4.34,5.45
			l4.67,6.08H211.36z"/>
		<path class="st0" d="M232.84,236.38v2.32h-10.1v-14.94h9.83v2.3h-7.05v3.9h6.42v2.25h-6.42v4.18H232.84z"/>
		<path class="st0" d="M243.66,238.69l-3.25-4.39l-3.29,4.39h-2.95l4.64-5.96l-4.29-5.57h3.02l2.88,3.88l2.98-3.88h2.95l-4.34,5.45
			l4.67,6.08H243.66z"/>
		<path class="st0" d="M262.48,232.93c0,3.46-2.86,6.05-6.76,6.05c-1.69,0-3.19-0.52-4.34-1.4v5.24h-2.68v-15.66h1.81l0.5,1.42
			c1.18-1.06,2.83-1.7,4.71-1.7C259.63,226.89,262.48,229.46,262.48,232.93z M259.77,232.93c0-2.17-1.8-3.78-4.26-3.78
			c-2.46,0-4.28,1.62-4.28,3.78c0,2.16,1.82,3.78,4.28,3.78C257.97,236.71,259.77,235.1,259.77,232.93z"/>
		<path class="st0" d="M264.41,232.93c0-3.49,2.99-6.04,6.98-6.04c3.99,0,6.98,2.57,6.98,6.04c0,3.46-3,6.04-6.98,6.04
			C267.39,238.97,264.41,236.39,264.41,232.93z M275.64,232.93c0-2.21-1.78-3.78-4.25-3.78c-2.47,0-4.25,1.58-4.25,3.78
			c0,2.21,1.78,3.78,4.25,3.78C273.86,236.71,275.64,235.14,275.64,232.93z"/>
		<path class="st0" d="M201.04,287.75v2.18h-11v-0.62c7.03-6.78,7.89-7.94,7.89-9.58c0-1.25-0.97-2.09-2.42-2.09
			c-1.52,0-2.51,0.86-2.51,2.11v0.32h-2.61v-0.33c0-2.55,2.05-4.28,5.1-4.28c2.99,0,5.08,1.76,5.08,4.25c0,1.87-0.84,3.39-5.51,8.03
			H201.04z"/>
		<path class="st0" d="M203.34,282.82c0-4.54,2.43-7.35,6.35-7.35c3.91,0,6.34,2.81,6.34,7.35c0,4.53-2.45,7.36-6.34,7.36
			C205.79,290.19,203.34,287.35,203.34,282.82z M213.4,282.83c0-3.27-1.39-5.18-3.7-5.18c-2.34,0-3.72,1.9-3.72,5.17
			c0,3.28,1.36,5.19,3.72,5.19C212.01,288.01,213.4,286.11,213.4,282.83z"/>
		<path class="st0" d="M229.1,287.75v2.18h-11v-0.62c7.03-6.78,7.89-7.94,7.89-9.58c0-1.25-0.97-2.09-2.42-2.09
			c-1.52,0-2.51,0.86-2.51,2.11v0.32h-2.61v-0.33c0-2.55,2.05-4.28,5.1-4.28c2.99,0,5.08,1.76,5.08,4.25c0,1.87-0.84,3.39-5.51,8.03
			H229.1z"/>
		<path class="st0" d="M236.28,275.74v14.2h-2.57v-12.12h-2.84v-2.08H236.28z"/>
	</g>
	<line class="st0" x1="106.81" y1="200.23" x2="320.83" y2="200.23"/>
</g>
</svg>
