<?xml version="1.0" encoding="utf-8"?>
<!-- Generator: Adobe Illustrator 26.0.1, SVG Export Plug-In . SVG Version: 6.00 Build 0)  -->
<svg version="1.1" id="Layer_1" xmlns="http://www.w3.org/2000/svg" xmlns:xlink="http://www.w3.org/1999/xlink" x="0px" y="0px"
	 viewBox="0 0 521.87 153.06" style="enable-background:new 0 0 521.87 153.06;" xml:space="preserve">
<style type="text/css">
	.st0{fill:#2A3F73;}
	.st1{fill:#3D9730;}
	.st2{fill:#FFFFFF;}
</style>
<g>
	<path class="st2" d="M475.41,120.91v-17.89h9.98v2.48h-7.08v4.48h7.08v2.55h-7.08v5.78h7.08v2.6H475.41z M457.1,107.38
		c-0.82-0.7-1.69-1.23-2.61-1.58c-0.92-0.35-1.88-0.53-2.89-0.53c-1.95,0-3.54,0.63-4.77,1.88c-1.23,1.26-1.84,2.88-1.84,4.88
		c0,1.93,0.6,3.52,1.79,4.78c1.19,1.26,2.7,1.88,4.51,1.88c1.06,0,2.06-0.19,3.02-0.56c0.96-0.38,1.87-0.94,2.75-1.7v3.29
		c-0.78,0.56-1.63,0.98-2.55,1.26c-0.92,0.28-1.92,0.42-2.99,0.42c-1.37,0-2.63-0.23-3.79-0.67c-1.16-0.45-2.18-1.11-3.06-1.98
		c-0.87-0.85-1.54-1.86-2.01-3.02c-0.47-1.16-0.7-2.4-0.7-3.71c0-1.31,0.23-2.54,0.7-3.69c0.47-1.16,1.15-2.16,2.03-3.04
		c0.89-0.88,1.91-1.55,3.05-2c1.15-0.45,2.39-0.68,3.72-0.68c1.05,0,2.05,0.15,3,0.46c0.96,0.31,1.88,0.77,2.77,1.39L457.1,107.38z
		 M420.96,120.91v-17.89h2.9v17.89H420.96z M402.88,112.01c0,1.27-0.24,2.47-0.71,3.6c-0.48,1.13-1.17,2.14-2.09,3.03
		c-0.92,0.89-1.96,1.57-3.12,2.04c-1.16,0.47-2.37,0.71-3.64,0.71c-1.29,0-2.52-0.24-3.69-0.71c-1.17-0.48-2.2-1.16-3.09-2.04
		c-0.91-0.89-1.61-1.89-2.08-3.02c-0.47-1.12-0.71-2.33-0.71-3.62c0-1.28,0.24-2.49,0.71-3.62c0.47-1.13,1.16-2.15,2.08-3.04
		c0.91-0.89,1.95-1.56,3.1-2.03c1.16-0.46,2.38-0.7,3.68-0.7c1.28,0,2.5,0.23,3.66,0.7c1.15,0.46,2.19,1.14,3.09,2.03
		c0.91,0.91,1.61,1.93,2.09,3.06C402.64,109.55,402.88,110.74,402.88,112.01z M399.85,112.01c0-0.9-0.17-1.76-0.5-2.58
		c-0.33-0.81-0.8-1.54-1.42-2.17c-0.6-0.63-1.3-1.11-2.09-1.45c-0.8-0.34-1.63-0.51-2.51-0.51c-0.88,0-1.72,0.17-2.52,0.5
		c-0.79,0.33-1.5,0.82-2.12,1.46c-0.62,0.63-1.09,1.35-1.42,2.16c-0.33,0.81-0.49,1.68-0.49,2.59c0,0.91,0.16,1.76,0.49,2.57
		c0.33,0.8,0.8,1.53,1.42,2.16c0.62,0.64,1.32,1.12,2.11,1.46c0.79,0.33,1.63,0.5,2.52,0.5c0.87,0,1.7-0.17,2.49-0.5
		c0.78-0.33,1.49-0.82,2.12-1.46c0.62-0.63,1.09-1.36,1.42-2.16C399.68,113.75,399.85,112.9,399.85,112.01z M351.12,120.91v-17.89
		h2.9v6.61h8.81v-6.61h2.9v17.89h-2.9v-8.68h-8.81v8.68H351.12z M332.81,107.38c-0.82-0.7-1.69-1.23-2.61-1.58
		c-0.92-0.35-1.88-0.53-2.89-0.53c-1.95,0-3.54,0.63-4.77,1.88c-1.23,1.26-1.84,2.88-1.84,4.88c0,1.93,0.6,3.52,1.79,4.78
		c1.19,1.26,2.7,1.88,4.51,1.88c1.06,0,2.06-0.19,3.02-0.56c0.96-0.38,1.87-0.94,2.75-1.7v3.29c-0.78,0.56-1.63,0.98-2.55,1.26
		c-0.92,0.28-1.92,0.42-2.99,0.42c-1.37,0-2.63-0.23-3.79-0.67c-1.16-0.45-2.18-1.11-3.06-1.98c-0.87-0.85-1.54-1.86-2.01-3.02
		c-0.47-1.16-0.7-2.4-0.7-3.71c0-1.31,0.23-2.54,0.7-3.69c0.47-1.16,1.15-2.16,2.03-3.04c0.89-0.88,1.91-1.55,3.05-2
		c1.15-0.45,2.39-0.68,3.72-0.68c1.05,0,2.05,0.15,3,0.46c0.96,0.31,1.88,0.77,2.77,1.39L332.81,107.38z M98.92,120.91v-17.89h9.98
		v2.48h-7.08v4.48h7.08v2.55h-7.08v5.78h7.08v2.6H98.92z M65.5,120.91v-17.89h2.9v6.61h8.81v-6.61h2.9v17.89h-2.9v-8.68h-8.81v8.68
		H65.5z M43.85,105.5v15.41h-2.9V105.5h-4.75v-2.48h12.39v2.48H43.85z"/>
	<g>
		<g>
			<polygon class="st2" points="298.7,31.68 298.7,83.95 288.7,83.95 288.7,63.17 262.93,63.17 262.93,83.95 252.93,83.95 
				252.93,31.68 262.93,31.68 262.93,54.31 288.7,54.31 288.7,31.68 			"/>
			<rect x="170.8" y="32.45" class="st2" width="10" height="52.21"/>
			<path class="st2" d="M127.03,84.73h-10V32.45h23.76c2.67,0,5.11,0.44,7.33,1.32c2.22,0.89,4.11,2.12,5.69,3.72
				c1.57,1.59,2.79,3.5,3.68,5.71c0.89,2.22,1.32,4.63,1.32,7.25c0,3.95-0.98,7.41-2.97,10.35c-1.98,2.96-4.6,5.08-7.9,6.36
				c4.39,5.8,8.73,11.66,13.02,17.57h-11.93c-2.09-2.72-4.13-5.46-6.12-8.22c-2-2.76-3.99-5.57-5.98-8.43h-9.9V84.73z M127.03,59.23
				h13.74c0.9,0,1.84-0.18,2.81-0.53c0.98-0.37,1.84-0.91,2.6-1.65c0.76-0.73,1.39-1.65,1.88-2.75c0.5-1.09,0.75-2.37,0.75-3.85
				c0-0.76-0.1-1.66-0.29-2.71c-0.18-1.05-0.56-2.04-1.13-2.99c-0.57-0.95-1.38-1.77-2.43-2.44c-1.05-0.65-2.44-0.99-4.2-0.99
				h-13.74V59.23z"/>
			<polygon class="st2" points="348.02,40.53 333.11,40.53 333.11,83.95 323.11,83.95 323.11,40.53 308.12,40.53 308.12,31.68 
				348.02,31.68 			"/>
			<polygon class="st2" points="411.76,64.91 400.62,55.38 389.46,64.91 			"/>
			<path class="st2" d="M202.37,56.3v-3.46c0-1.01,0.11-2.15,0.33-3.43c0.22-1.29,0.65-2.52,1.32-3.72c0.67-1.19,1.6-2.19,2.82-3
				c0.98-0.65,2.26-1.02,3.79-1.14h28.67v-9.1h-28.56h-0.14v0.01c-2.45,0.11-4.73,0.57-6.8,1.42c-2.37,0.97-4.41,2.36-6.1,4.14
				c-1.69,1.78-3,3.94-3.93,6.46c-0.93,2.52-1.39,5.31-1.39,8.36v11.43c0,3.05,0.46,5.83,1.39,8.36c0.93,2.52,2.23,4.67,3.93,6.46
				c1.69,1.78,3.73,3.17,6.1,4.14c2.07,0.85,4.35,1.31,6.8,1.42h0.12l0.02,0.01v-0.01h28.56v-9.09h-28.67
				c-1.52-0.12-2.8-0.49-3.79-1.14c-1.22-0.82-2.15-1.81-2.82-3c-0.67-1.2-1.11-2.44-1.32-3.72c-0.22-1.28-0.33-2.42-0.33-3.43V56.3
				z"/>
		</g>
	</g>
	<g>
		<path class="st1" d="M274.14,105.5v15.41h-2.9V105.5h-4.75v-2.48h12.39v2.48H274.14z M234.95,120.91v-17.89h2.9v6.61h8.81v-6.61
			h2.9v17.89h-2.9v-8.68h-8.81v8.68H234.95z M210.06,111.76h7.08c0,0.12,0,0.29,0.01,0.51c0.03,0.58,0.04,0.97,0.04,1.17
			c0,2.51-0.72,4.47-2.16,5.86c-1.44,1.39-3.47,2.09-6.09,2.09c-1.47,0-2.77-0.22-3.92-0.65c-1.15-0.43-2.16-1.08-3.02-1.96
			c-0.85-0.86-1.5-1.88-1.95-3.04c-0.45-1.16-0.68-2.41-0.68-3.74c0-1.35,0.23-2.6,0.69-3.74c0.46-1.14,1.14-2.14,2.05-3.02
			c0.87-0.85,1.89-1.51,3.07-1.96c1.17-0.45,2.43-0.67,3.76-0.67c1.41,0,2.67,0.26,3.78,0.77c1.11,0.51,2.1,1.3,2.97,2.36l-2.12,1.6
			c-0.6-0.7-1.28-1.22-2.04-1.56c-0.75-0.34-1.6-0.51-2.54-0.51c-1.94,0-3.52,0.62-4.75,1.86c-1.23,1.24-1.84,2.86-1.84,4.84
			c0,2.02,0.61,3.66,1.84,4.92c1.23,1.26,2.81,1.89,4.77,1.89c1.66,0,2.97-0.39,3.92-1.16c0.96-0.78,1.43-1.83,1.43-3.17v-0.25h-4.3
			V111.76z M178.36,120.91v-17.89h2.9v17.89H178.36z M152.32,112.91v8.01h-2.73v-17.89h4.05c1.19,0,2.11,0.08,2.77,0.23
			c0.65,0.15,1.21,0.41,1.68,0.77c0.55,0.43,0.98,0.99,1.28,1.68c0.3,0.68,0.45,1.43,0.45,2.25c0,1.43-0.35,2.55-1.04,3.37
			c-0.69,0.81-1.71,1.3-3.07,1.46l6.16,8.14h-3.28l-5.96-8.01H152.32z M152.5,110.65h0.53c1.54,0,2.56-0.18,3.07-0.54
			c0.5-0.36,0.76-0.99,0.76-1.91c0-0.98-0.27-1.68-0.81-2.08c-0.54-0.4-1.55-0.6-3.01-0.6h-0.53V110.65z"/>
		<g>
			<polygon class="st1" points="453.5,58.03 433.65,31.67 446.13,31.67 459.71,50.46 473.26,31.67 485.68,31.67 465.92,58.03 
				485.35,83.88 472.84,83.88 459.71,65.67 446.55,83.88 434.07,83.88 			"/>
			<polygon class="st1" points="374.7,31.68 374.7,83.95 384.69,83.95 384.69,40.53 421.66,40.53 421.66,31.68 			"/>
			<polygon class="st1" points="217.01,62.56 239.3,62.56 228.15,53.03 			"/>
			<path class="st1" d="M65.6,54.8L65.6,54.8L47.52,72.88l-4.89-4.89L55.82,54.8L42.64,41.62l4.89-4.89L65.6,54.8z M36.19,32.51
				v51.84H70L55.9,70.1l15.62-15.62L58.33,41.3l4.89-4.89l18.07,18.07L65.65,70.13l14.07,14.23h8.32V32.51H36.19z"/>
		</g>
	</g>
</g>
</svg>
