<svg id="Layer_1" data-name="Layer 1" xmlns="http://www.w3.org/2000/svg" viewBox="0 0 100 100"><defs><style>.cls-1{fill:#e2bc5e;}</style></defs><path class="cls-1" d="M33.64,69.06c.31.94-.13,1.71-1,1.71H8.22c-.84,0-1.28-.77-1-1.71l3.48-10.58a2.48,2.48,0,0,1,2.09-1.71H28.07a2.48,2.48,0,0,1,2.09,1.71Z"/><path class="cls-1" d="M63.2,69.06c.3.94-.13,1.71-1,1.71H37.78c-.84,0-1.28-.77-1-1.71l3.47-10.58a2.48,2.48,0,0,1,2.1-1.71H57.62a2.48,2.48,0,0,1,2.1,1.71Z"/><path class="cls-1" d="M92.75,69.06c.31.94-.13,1.71-1,1.71H67.33c-.84,0-1.28-.77-1-1.71l3.48-10.58a2.48,2.48,0,0,1,2.09-1.71H87.18a2.48,2.48,0,0,1,2.09,1.71Z"/><path class="cls-1" d="M48.65,51.67c.31.94-.13,1.71-1,1.71H23.23c-.84,0-1.28-.77-1-1.71l3.48-10.59a2.48,2.48,0,0,1,2.09-1.7H43.08a2.47,2.47,0,0,1,2.09,1.7Z"/><path class="cls-1" d="M78.21,51.67c.31.94-.13,1.71-1,1.71H52.79c-.84,0-1.28-.77-1-1.71l3.47-10.59a2.5,2.5,0,0,1,2.1-1.7H72.64a2.48,2.48,0,0,1,2.09,1.7Z"/><path class="cls-1" d="M63.16,33.68c.31.94-.13,1.71-1,1.71H37.75c-.85,0-1.28-.77-1-1.71l3.48-10.59a2.47,2.47,0,0,1,2.09-1.7H57.59a2.47,2.47,0,0,1,2.1,1.7Z"/><rect class="cls-1" x="5.01" y="74.31" width="89.97" height="4.31"/></svg>