<svg id="Layer_1" data-name="Layer 1" xmlns="http://www.w3.org/2000/svg" viewBox="0 0 100 100"><defs><style>.cls-1{fill:#1eb70e;}</style></defs><polygon class="cls-1" points="90.02 86.07 9.98 86.07 9.98 13.93 12.08 13.93 12.08 83.97 90.02 83.97 90.02 86.07"/><polygon class="cls-1" points="24.37 27.49 22.27 27.49 22.27 31.35 18.4 31.35 18.4 52.07 22.27 52.07 22.27 55.93 24.37 55.93 24.37 52.07 28.23 52.07 28.23 31.35 24.37 31.35 24.37 27.49"/><polygon class="cls-1" points="42.36 37.85 40.08 37.85 40.08 41.71 36.31 41.71 36.31 62.42 40.08 62.42 40.08 71.15 42.36 71.15 42.36 62.42 46.14 62.42 46.14 41.71 42.36 41.71 42.36 37.85"/><path class="cls-1" d="M60.18,46H58.07V59.44H53.16V71.9H65.1V59.44H60.18ZM63,69.8H55.27V61.55H63Z"/><path class="cls-1" d="M84.68,43.58H79.49V37H77.38v6.54H72.2v19h5.18v7h2.11v-7h5.19ZM82,60H74.85V46.23H82Z"/></svg>