<svg id="Layer_1" data-name="Layer 1" xmlns="http://www.w3.org/2000/svg" viewBox="0 0 100 100"><defs><style>.cls-1{fill:#dd5d4f;}</style></defs><path class="cls-1" d="M26.87,29.13v-10l-6.49-6v-.71l-1.21-.6a25,25,0,0,0-3.41,20.86h0V46.77h-.47v1.4h.47v.5h-.47v1.4h.47v10h-.47v1.4h.47V62h-.47v1.41h.47v10h-.47v1.4h.47v.5h-.47v1.4h.47V88.27h.69V76.76h.47v-1.4h-.47v-.5h.47v-1.4h-.47v-10h.47V62h-.47v-.49h.47v-1.4h-.47v-10h.47v-1.4h-.47v-.5h.47v-1.4h-.47V34.71a31.1,31.1,0,0,0,3.95,7.57l1.22-.74,3.45-12.41ZM16.23,26.3V23.58l1-2.25,1.17-.49H19.7V27.4H17.47Zm5.23,9-.59.53H18.51l-.66-.91-1.06-4.36-.11-.66.92-1,2.29.32,2,3.29.21.68Zm.94-17.92L20.66,19h-2l-.75-.44v-.92l.94-1.91h2.61l1,.87Zm.93,3.11h1.83v1.23h-.79v4.68h.79v1.23H23.33Z"/><path class="cls-1" d="M81.07,83.42V79.77H79.72V64H77.3l-3-11.71H72.13V51.5H68.05v.77h-5.3V50.74H54.59v1.53H52.66v4H49.71l-.27-1.46L63.82,30.78h.23L66.39,28V26.64h.8V21.11H26.87v5.53H38.76v2.27H37.07v1.26H29.54V42.62H35l-7,37.15v3.65H23.69v4.85H85.15V83.42ZM49.66,71.58h-1.3V68.43h.7Zm-1.3-3.74V65.15h.08L49,67.84Zm-5-41.2H59.88V28l2.34,2.8h.32L49.13,53.22l-.77-4V45.29a.94.94,0,0,0-.91-.94l-.86-4.55V30.17H45V28.91H43.31ZM45.74,31v4h-.06l-.54-2.85H45V31Zm-1.93,9.69.2,1.06H39.84l1.46-1.06Zm-1.33-.85,1-.75.14.75Zm-2.89-6.17h2.89L42.73,35H39.34Zm-1.1,5.8.69-3.63h3.71l.34,1.77-3.07,2.23H38.49Zm0,1.22H39l-.5.36Zm-.71,2.56.89-.65h5.5L45,47c-.36.55-.69,1.12-1,1.7L37.63,44Zm6.41,24.26V66.42a.59.59,0,0,1,0,1.11Zm.18,4h-.18v-.33ZM30.39,31h6.68v1.14h-.14L36.39,35h-6Zm0,4.84h5.84l-.76,4H30.39Zm0,5.91V40.71h4.92l-.2,1.06Zm7,3.75,6,4.42A22.82,22.82,0,0,0,42,53.86a1.26,1.26,0,0,1,.59.23L34.7,59.53ZM35.92,65.15V79.77H30.86L34,63.13l1.91,1.46ZM34.3,61.64l0-.21,8.89-6.14a1.39,1.39,0,0,1-1.4,1.38,1.23,1.23,0,0,1-.39-.05c-.07.59-.13,1.18-.17,1.77a1.41,1.41,0,0,1,0,2.82c0,.56.09,1.1.16,1.65a1.29,1.29,0,0,1,.4-.06A1.39,1.39,0,0,1,43.18,64H37.36Zm8.33,6.2h-.21l-3.54-2.69h4a1.38,1.38,0,0,1-.93.47Q42.24,66.76,42.63,67.84Zm-2.45,0H37.73V66ZM43.61,78.6H37.73V75.91h5.88Zm0-3.28H37.73V72.16h5.88Zm0-3.74H37.73V68.43h3.21l2.67,2Zm0-4.16a.58.58,0,0,1,0-.89ZM43.4,52.75a.6.6,0,0,1,.6-.59.59.59,0,0,1,.58.53l-.85.59A.6.6,0,0,1,43.4,52.75ZM49.91,78.6H44.19V75.91h5.72Zm0-3.28H44.19V72.16h.54a23,23,0,0,0,1.91,2.69,1.34,1.34,0,0,1,.11.14h0a1,1,0,0,0,.66.26.94.94,0,0,0,.94-.94V74.1l1.55,1.18Zm0-1.75-1.55-1.19v-.22h1.41l.14.78Zm2.75-2H52.6L52,68.43h.65Zm0-4v.27H51.9L51.73,67v-1.8h.93Zm0-3.59H51.17l-.09-.46h1.58ZM57.53,78.6H55.2V75.91h2.33Zm0-3.28H55.2V72.16h2.33Zm0-3.74H55.2v-.12h2.33Zm0-1.19H55.2v-2h2.33Zm0-2.55H55.2v-.27h2.33ZM63.91,78.6h-5.8V75.91h5.8Zm0-3.28h-5.8V72.16h5.8Zm0-3.74h-5.8v-.12h5.8Zm0-1.19h-5.8v-2h5.8Zm0-2.55h-5.8v-.27h5.8ZM71.45,78.6H67.28V75.91h4.17Zm0-3.28H67.28V72.16h4.17Zm0-3.74H67.28v-.12h4.17Zm0-1.19H67.28v-2h4.17Zm0-2.55H67.28v-.27h4.17ZM75.69,78.6H72V75.91h3.66Zm0-3.28H72V72.16h3.66Zm0-3.74H72v-.12h3.66Zm0-1.19H72v-2h3.66Zm0-2.55H72v-.27h3.66Zm2.22-1.51-.31-1.18h.31Z"/></svg>