<svg id="Layer_1" data-name="Layer 1" xmlns="http://www.w3.org/2000/svg" viewBox="0 0 100 100"><defs><style>.cls-1{fill:#ad5c3c;}</style></defs><polygon class="cls-1" points="87.55 59.21 87.55 54.38 80.33 47.56 78.25 50.43 87.55 59.21"/><path class="cls-1" d="M66.83,39.64l2.83,2.67,2.08-2.86L68.51,36.4h0A1.78,1.78,0,0,0,66.82,36L60.7,37.78l-9.16-8.09a1.76,1.76,0,0,0-2.31-.16l-8,6-7-14.5,0,0a1.74,1.74,0,0,0-2.36-.75L23,24.85V28.8l8.88-4.58L39,39a1.76,1.76,0,0,0,2.35.82l.29-.18h0l8.54-6.47L59.11,41a1.74,1.74,0,0,0,1.65.38h0Z"/><path class="cls-1" d="M23,77h3.28l9.84-11.66,5.6,2.58a2.92,2.92,0,0,0,3.66-1l8.38-11.26,8.51,6.66a2.93,2.93,0,0,0,4.1-.51.5.5,0,0,0,.07-.08l21.1-29.06v-10L63.49,55.8l-8.41-6.57a2.92,2.92,0,0,0-4.22.5L42,61.6l-5.47-2.52a2.93,2.93,0,0,0-3.46.76L23,71.8Z"/><polygon class="cls-1" points="15.97 80.51 12.45 80.51 12.45 84.03 15.97 84.03 15.97 87.55 19.49 87.55 19.49 84.03 80.51 84.03 80.51 87.55 87.55 82.27 80.51 76.99 80.51 80.51 19.49 80.51 19.49 19.49 23.01 19.49 17.73 12.45 12.45 19.49 15.97 19.49 15.97 80.51"/></svg>